<?xml version="1.0" encoding="UTF-8" standalone="no"?>
<svg
   xmlns:dc="http://purl.org/dc/elements/1.1/"
   xmlns:cc="http://creativecommons.org/ns#"
   xmlns:rdf="http://www.w3.org/1999/02/22-rdf-syntax-ns#"
   xmlns:svg="http://www.w3.org/2000/svg"
   xmlns="http://www.w3.org/2000/svg"
   version="1.1"
   id="svg149"
   width="400"
   height="208"
   viewBox="0 0 400 208">
  <metadata
     id="metadata155">
    <rdf:RDF>
      <cc:Work
         rdf:about="">
        <dc:format>image/svg+xml</dc:format>
        <dc:type
           rdf:resource="http://purl.org/dc/dcmitype/StillImage" />
        <dc:title></dc:title>
      </cc:Work>
    </rdf:RDF>
  </metadata>
  <defs
     id="defs153" />
  <g
     id="g157">
    <g
       id="g161"
       transform="translate(-6.6747557)">
      <path
         style="fill:#e9d3a0"
         d="M 83,189.30247 C 76.926064,188.26951 65.082906,184.55676 60.5,182.24888 51.865222,177.90053 39,168.14164 39,165.94009 c 0,-0.45496 9.297068,-8.7549 20.660151,-18.44432 16.671655,-14.21609 21.78755,-19.19744 26.5,-25.80308 C 89.372068,117.19041 92,112.99782 92,112.37581 c 0,-3.03604 -3.12912,-3.32058 -39.550145,-3.59632 L 15.533568,108.5 l -0.729266,3 c -0.401096,1.65 -0.499738,-1.62423 -0.219204,-7.27607 0.280534,-5.651842 1.374466,-13.655865 2.430961,-17.786721 2.078215,-8.125743 8.323985,-21.024398 12.744203,-26.319107 L 32.515101,56.81825 58.890329,79.557459 C 73.396704,92.064025 85.093306,101.86584 84.882778,101.33928 84.67225,100.81272 82.549198,97.258466 80.164884,93.440946 76.543543,87.642825 72.551267,83.700955 55.917795,69.5 l -19.911973,-17 5.955832,-5.586471 5.955832,-5.586472 -4.032005,-6.89979 c -2.217603,-3.794885 -4.478854,-7.175958 -5.025003,-7.513496 -1.495893,-0.924513 -3.667211,-7.93682 -3.113375,-10.054694 0.999325,-3.821426 7.497152,-1.006341 8.6952,3.767062 0.530641,2.114243 4.335837,7.795297 10.256638,15.312884 0.190174,0.241463 2.698211,-0.593478 5.573415,-1.855423 9.366887,-4.111187 19.636143,-7.062419 25.490719,-7.325654 L 91.5,26.5 92.367702,59.949301 c 0.866155,33.389642 0.872189,33.456079 3.382887,37.25 C 97.13394,99.289685 98.490995,101 98.766267,101 99.40186,101 98.128878,38.28385 97.350516,31.25 L 96.769553,26 h 5.566007 c 3.0613,0 7.95065,0.480781 10.86522,1.068402 7.60365,1.533008 22.54071,7.410582 27.79922,10.938697 l 4.5,3.019203 2.29632,-2.763151 c 4.36459,-5.251883 10.70999,-14.02369 12.44573,-17.204832 1.40739,-2.579355 2.27188,-3.131763 4.5,-2.875508 2.19745,0.252726 2.82436,0.897921 3.08475,3.174683 C 168.18469,24.486891 166.28973,30 164.85621,30 c -0.49563,0 -3.40397,3.879684 -6.46297,8.621519 l -5.56181,8.62152 3.60205,3.688839 3.60206,3.68884 -14.58853,12.424415 C 134.49673,76.371004 129.38406,81.530827 124.94642,87.734774 121.69479,92.280648 119.27059,96 119.5593,96 c 0.28872,0 9.84349,-8.01081 21.23282,-17.801799 11.38933,-9.790989 21.25462,-18.132806 21.92285,-18.537369 1.64991,-0.998887 7.58973,8.095914 11.40513,17.463039 7.71617,18.943831 7.84433,42.454869 0.3337,61.215569 C 171.92015,144.66821 162.74587,160 161.49249,160 160.80627,160 111.24231,117.20109 110.45698,115.93039 110.10656,115.36339 123.38012,115 144.44098,115 H 179 v -3 -3 h -34.83102 -34.83102 l -1.29562,2.42089 c -1.18413,2.21257 -0.87637,3.08272 3.57642,10.11187 4.18877,6.61236 7.71448,10.14003 25.13963,25.1536 11.25718,9.69923 19.97849,17.93036 19.61732,18.51475 -1.19076,1.92669 -8.59674,8.2558 -13.64456,11.66058 -10.19697,6.87789 -22.77749,11.49903 -34.82009,12.79029 l -5.58895,0.59927 -0.66105,-13.78374 c -0.36358,-7.58105 -0.71988,-19.22508 -0.79176,-25.87562 -0.0719,-6.65054 -0.40939,-15.46689 -0.75,-19.59189 l -0.6193,-7.5 -2.768846,3.6191 c -1.522866,1.9905 -2.569812,4.2405 -2.326548,5 0.243264,0.75949 0.735839,14.0934 1.09461,29.6309 L 96.151528,190 90.825764,189.86382 C 87.896594,189.78892 84.375,189.53631 83,189.30247 Z M 30.585954,157.32139 c -8.19052,-11.16446 -14.10061,-25.12781 -15.20723,-35.92906 L 14.72381,115 h 37.352381 c 31.43668,0 37.120474,0.21408 35.888095,1.35173 -1.985687,1.83305 -50.047503,42.8083 -52.160577,44.46966 -1.476409,1.16079 -2.110542,0.73542 -5.217755,-3.5 z m 179.860296,-2.60086 c -0.27004,-0.70371 -0.36842,-10.04121 -0.21861,-20.75 L 210.5,114.5 220.95303,114.21278 C 236.58746,113.78318 241,116.51393 241,126.61908 c 0,4.43675 -0.46916,5.86469 -2.75,8.36993 C 235.37185,138.15034 228.95413,140 220.86351,140 H 217 v 6.41821 c 0,3.53002 -0.27314,7.13002 -0.60699,8 -0.72561,1.89093 -5.24891,2.12088 -5.94676,0.30232 z m 22.51479,-22.90909 c 2.67619,-2.87254 2.65934,-7.94003 -0.0345,-10.37791 -1.48643,-1.34521 -4.03445,-1.98726 -9,-2.26784 L 217,118.77431 V 126.38715 134 h 6.96104 c 5.8732,0 7.27969,-0.34202 9,-2.18856 z m 18.66624,22.65964 C 251.28227,153.57202 251,146.85333 251,139.54066 c 0,-10.54791 0.30738,-13.55087 1.48727,-14.53009 0.81799,-0.67888 2.17976,-0.96858 3.02616,-0.64379 1.30944,0.50248 1.49772,2.86752 1.26273,15.86187 -0.26587,14.70253 -0.35523,15.28263 -2.39888,15.57422 -1.25203,0.17864 -2.38002,-0.36763 -2.75,-1.33179 z m 17.03939,0.86225 c -1.77818,-1.77817 -0.0139,-5.3181 7.30611,-14.65921 L 283.94557,130.5 276.22278,130 c -7.43763,-0.48154 -7.72278,-0.59231 -7.72278,-3 0,-2.49964 0.002,-2.50004 11.10153,-2.78136 16.44333,-0.41675 16.61466,0.22601 4.24137,15.9118 -3.76359,4.77116 -6.8429,8.94365 -6.8429,9.2722 0,0.32855 3.3199,0.59736 7.37756,0.59736 7.69734,0 10.47199,1.34373 9.2657,4.48727 -0.47303,1.23269 -2.77689,1.51273 -12.44521,1.51273 -6.52559,0 -12.16472,-0.3 -12.53138,-0.66667 z m 34.0292,0.0292 c -1.809,-1.809 -0.0793,-5.30133 7.27513,-14.68842 l 7.97101,-10.17412 -6.88345,-0.29204 c -7.15896,-0.30373 -9.60292,-1.6258 -8.46882,-4.58121 0.52303,-1.363 2.37048,-1.62675 11.3948,-1.62675 15.9756,0 16.12408,0.62268 3.86796,16.22136 -3.76887,4.79674 -6.8525,8.95924 -6.8525,9.25 0,0.29075 3.2625,0.53553 7.25,0.54395 8.02968,0.017 10.12325,0.80417 9.58622,3.60452 -0.32547,1.69712 -1.53297,1.90735 -12.40252,2.15938 -6.62308,0.15356 -12.3551,-0.0339 -12.73783,-0.41667 z m 36.22721,-2.28562 c -3.44941,-3.4494 -3.98424,-8.80661 -1.13648,-11.38379 2.5168,-2.27768 7.90144,-4.32992 13.4634,-5.13129 4.04837,-0.58329 4.75,-1.01507 4.75,-2.92311 C 356,130.43234 354.13343,129 349.95499,129 c -2.37502,0 -4.27564,0.69684 -5.45499,2 -0.99549,1.1 -2.89653,2 -4.22454,2 -3.5585,0 -2.62611,-3.85939 1.62242,-6.71564 6.03719,-4.05874 16.02349,-2.53861 18.92194,2.88033 0.8514,1.59177 1.15853,6.15215 0.96464,14.32323 -0.25784,10.86625 -0.46249,12.02206 -2.18721,12.35274 -1.04651,0.20065 -2.31034,-0.36349 -2.8085,-1.25365 -0.81472,-1.45584 -1.1232,-1.46616 -3.06975,-0.10274 -1.21207,0.84896 -4.29946,1.51573 -7.01843,1.51573 -4.03207,0 -5.34959,-0.49517 -7.77749,-2.92308 z m 15.00434,-4.71178 C 355.06734,146.91597 356,144.608 356,143.23631 c 0,-2.42565 -0.1417,-2.47517 -5.17297,-1.80775 -6.64395,0.88135 -8.82703,2.09484 -8.82703,4.90662 0,3.24818 1.86082,4.66482 6.12742,4.66482 2.83572,0 4.22324,-0.63033 5.8,-2.63486 z M 251,116 c 0,-2.7619 0.27778,-3 3.5,-3 3.22222,0 3.5,0.2381 3.5,3 0,2.7619 -0.27778,3 -3.5,3 -3.22222,0 -3.5,-0.2381 -3.5,-3 z m -14.5,-15.4962 c -2.2,-0.810529 -4.10335,-1.480463 -4.22968,-1.488744 -0.12632,-0.0083 -1.13882,-1.797129 -2.25,-3.975218 C 227.44085,89.983655 227.31238,80.882682 229.75155,76 c 4.58907,-9.186282 19.48162,-9.148678 24.42118,0.06166 2.53507,4.726897 2.46842,14.374563 -0.12873,18.634002 -3.73067,6.118488 -10.56254,8.380248 -17.544,5.808138 z m 10.99083,-6.493669 c 2.27647,-2.515466 3.16049,-11.023498 1.5495,-14.912765 -2.47656,-5.978947 -11.26737,-6.284004 -13.91061,-0.482724 -1.89036,4.14889 -1.40336,11.767766 0.94286,14.750499 2.63369,3.348198 8.66363,3.688814 11.41825,0.64499 z m 25.72153,6.024199 c -5.30765,-2.438963 -7.21385,-6.47215 -7.20862,-15.252211 0.005,-7.59971 2.41874,-12.225041 7.48604,-14.342295 4.70239,-1.964783 8.87012,-1.807029 13.40691,0.507469 3.82876,1.953289 6.93272,6.901672 5.64061,8.99235 -1.1695,1.892294 -4.26626,1.12296 -5.97459,-1.484278 -2.25433,-3.440551 -5.72355,-4.64386 -9.5464,-3.311205 C 272.99717,76.545237 272,78.652681 272,85.745697 272,93.233344 274.18149,96 280.08547,96 c 3.40493,0 4.2637,-0.45016 5.71104,-2.993677 1.24179,-2.182297 2.44883,-2.995391 4.45349,-3 3.41018,-0.0078 3.67958,2.542186 0.67245,6.365139 -4.11354,5.229518 -11.13879,6.682508 -17.71009,3.662868 z m 94.97231,1.00674 C 364.62863,100.16669 360,96.429484 360,94.432675 c 0,-2.281008 3.32931,-2.565321 6.09508,-0.520501 3.67839,2.719551 6.94759,3.402301 10.26033,2.1428 2.23369,-0.84925 2.71541,-1.58455 2.46097,-3.756443 -0.27993,-2.389402 -1.06518,-2.918289 -6.81638,-4.591036 -8.03155,-2.335989 -11,-4.880643 -11,-9.429558 0,-8.375923 12.74477,-12.199543 20.45304,-6.136216 3.2991,2.595074 3.41159,5.858279 0.20195,5.858279 -1.28976,0 -3.1595,-0.9 -4.15499,-2 -2.13964,-2.364271 -7.68612,-2.685587 -9.46013,-0.548039 -2.48974,2.99995 -0.76293,4.975215 6.37219,7.289033 10.05453,3.26054 12.35808,6.073311 10.26928,12.539391 -1.49349,4.623227 -9.60408,7.455465 -16.49667,5.760685 z M 188,80.066422 V 59 h 9.47976 c 11.03162,0 16.29749,1.66004 18.82189,5.933508 3.34236,5.658164 1.37441,14.600487 -3.81107,17.317435 l -2.48428,1.301644 4.49685,7.681968 C 216.97642,95.459637 219,99.385305 219,99.958261 219,100.53122 217.73609,101 216.19131,101 c -2.47272,0 -3.39623,-1.016749 -7.72053,-8.5 L 203.55894,84 h -4.73903 -4.73903 l -0.29044,8.25 c -0.28779,8.17477 -0.31552,8.25289 -3.04044,8.56642 l -2.75,0.31642 z m 22.12033,-3.966694 C 212.55776,73.089628 212.51043,69.510431 210,67 c -1.61905,-1.619048 -3.33333,-2 -9,-2 h -7 v 7.112847 7.112846 l 7.12033,-0.402334 c 5.96535,-0.337073 7.42523,-0.778869 9,-2.723631 z M 304,80.035038 C 304,62.124983 304.22857,58.849522 305.51273,58.35674 308.88351,57.063251 310,59.866301 310,69.622445 310,74.7801 310.26573,79 310.59051,79 c 0.32478,0 2.96079,-2.025 5.85781,-4.5 3.81709,-3.261038 6.13243,-4.5 8.40949,-4.5 1.72821,0 3.14219,0.423343 3.14219,0.940762 0,0.51742 -3.15,3.532169 -7,6.699443 -3.85,3.167274 -7,5.89522 -7,6.062101 0,0.166882 3.375,3.509341 7.5,7.427687 7.98719,7.587047 9.1233,9.870007 4.91181,9.870007 -1.76027,0 -4.71917,-1.926414 -9.25,-6.022288 L 310.5,88.955423 310,94.727712 c -0.46859,5.409658 -0.67276,5.792168 -3.25,6.088708 l -2.75,0.31642 z m 34,-15.10176 c 0,-0.586697 1.19611,-2.634905 2.65803,-4.551572 2.17663,-2.853714 3.218,-3.430234 5.75,-3.183279 4.11775,0.401621 3.89757,1.982561 -0.79553,5.712173 C 341.75092,65.979393 338,66.976032 338,64.933278 Z"
         id="path175" />
      <path
         style="fill:#f7dc4d"
         d="m 81.5,188.51712 c -9.005376,-1.67549 -19.009497,-5.37344 -26.079109,-9.63994 -5.340279,-3.22285 -15.706232,-11.4246 -16.11397,-12.7497 C 39.200728,165.78237 44.774313,160.775 51.692666,155 c 23.875548,-19.92979 28.892905,-24.69231 34.982417,-33.20563 5.792904,-8.09865 5.993808,-8.5787 4.657544,-11.12905 L 89.936125,108 H 52.468063 15 v -5.84004 C 15,94.863522 18.104055,82.517415 22.079969,74 25.412036,66.861871 31.040379,58.066348 32.302029,58.025785 32.743144,58.011603 44.393763,67.7875 58.192292,79.75 c 13.798529,11.9625 25.979743,22.37628 27.069364,23.14173 1.90516,1.33836 0.124638,-1.79537 -7.969698,-14.026739 C 75.845203,86.678797 66.975158,78.324434 57.580747,70.29974 48.186336,62.275047 39.625426,54.887702 38.556502,53.883419 36.646353,52.088781 36.712673,51.966873 42.421615,46.778711 l 5.80861,-5.278739 -3.777416,-6.499986 C 42.37523,31.424994 39.623429,27.227974 38.337696,25.673275 35.918824,22.748392 35.12397,16.65945 37.008949,15.494469 c 2.044671,-1.263676 5.215611,0.799509 6.688488,4.351893 0.833173,2.009501 3.746003,6.672678 6.472957,10.362615 l 4.958098,6.708978 5.685754,-2.558088 c 9.219969,-4.148173 15.872466,-6.233228 22.993414,-7.206695 3.680787,-0.503181 6.775713,-0.847618 6.877614,-0.765416 0.101901,0.0822 0.62363,15.113153 1.159397,33.402111 l 0.974123,33.252653 3.290774,5.128227 c 1.809926,2.820523 3.48327,4.550733 3.718544,3.844913 C 100.06339,101.30984 99.70578,84.110104 99.033434,63.794018 98.361087,43.477933 98.06422,26.602447 98.373728,26.292939 c 0.309508,-0.309508 4.651502,-0.03838 9.648872,0.602507 10.48766,1.344989 23.0089,5.617583 31.12813,10.621787 C 142.25863,39.432755 145.03075,41 145.311,41 c 0.95615,0 12.92183,-15.490201 14.50785,-18.781163 1.54965,-3.215489 5.02909,-5.048886 7.12431,-3.753963 2.31954,1.433552 1.12602,7.450564 -2.23792,11.282245 -1.81211,2.064085 -5.23731,6.786301 -7.61155,10.493815 l -4.31679,6.740935 3.19917,3.643662 c 3.7669,4.290255 5.06709,2.453843 -11.97607,16.915187 -9.18936,7.797291 -13.187,12.088772 -19.89615,21.358591 -4.61789,6.38038 -7.31789,10.660628 -6,9.511662 1.31788,-1.148965 12.01388,-10.358197 23.76888,-20.46496 l 21.37273,-18.375931 2.41077,2.96496 c 6.59927,8.116345 12.56343,25.295882 13.7009,39.46496 l 0.52181,6.5 -34.73319,-0.27465 -34.73319,-0.27464 -2.09053,2.82759 -2.09053,2.82759 6.13425,9.15404 c 5.45423,8.13926 8.26541,10.95709 25.35885,25.41885 l 19.2246,16.26481 -2.7246,2.86615 c -4.26079,4.48215 -19.42503,14.24712 -25.87955,16.66506 -7.64624,2.86436 -15.75202,4.84788 -21.34505,5.22321 L 102.5,189.5 101.73795,158 c -0.41912,-17.325 -0.9675,-32.0625 -1.21861,-32.75 -0.750932,-2.05591 -1.889168,-1.42609 -4.386604,2.42724 l -2.367265,3.65249 0.643117,23.58513 c 0.353714,12.97183 0.900667,26.17264 1.215451,29.33514 l 0.572335,5.75 -3.848187,-0.0902 C 90.231684,189.86011 85.35,189.23343 81.5,188.51712 Z M 63.151224,164.37863 c 1.291827,-1.99175 3.305039,-5.34799 4.473805,-7.4583 1.168766,-2.11032 2.373085,-3.58888 2.676264,-3.2857 0.303179,0.30318 1.261442,-0.82216 2.129474,-2.50075 0.868032,-1.67859 2.588714,-4.15256 3.823737,-5.49773 3.066003,-3.33942 4.022339,-4.58627 7.195731,-9.38159 3.871771,-5.85064 2.191005,-7.38197 -2.03197,-1.85131 -3.622572,4.74434 -4.207164,6.1144 -2.168265,5.08159 0.6875,-0.34825 -0.0059,0.35111 -1.540841,1.55414 -3.577039,2.80352 -7.802415,9.00111 -7.010425,10.28258 0.335656,0.5431 0.113332,0.68032 -0.494052,0.30494 -0.969291,-0.59905 -3.572517,2.65065 -3.669247,4.58045 -0.01949,0.38883 -0.750166,1.28883 -1.623725,2 C 63.483183,159.36994 59,166.46072 59,167.55716 c 0,1.54876 2.155729,-0.10185 4.151224,-3.17853 z M 134.22562,165.25 c -1.05081,-1.5125 -3.17797,-5.1125 -4.72702,-8 -1.54905,-2.8875 -3.2215,-5.25 -3.71655,-5.25 -0.92493,0 -0.61717,0.68367 2.25077,5 0.9136,1.375 2.86135,4.4125 4.32833,6.75 1.46697,2.3375 2.91648,4.25 3.22113,4.25 0.30465,0 -0.30585,-1.2375 -1.35666,-2.75 z m -10.91908,-18.32207 c -0.9936,-1.68964 -2.48154,-3.82714 -3.30654,-4.75 -0.825,-0.92286 -2.13854,-2.91543 -2.91898,-4.42793 -0.78044,-1.5125 -1.8195,-2.75 -2.30902,-2.75 -1.01373,0 -0.63018,0.74198 3.61847,7 5.34176,7.86811 8.5164,11.05041 4.91607,4.92793 z M 96.702366,117.5 C 100.96149,112.13676 109.92556,99.956468 116.5,90.599167 c 2.2,-3.131226 6.13234,-8.648313 8.73854,-12.260194 2.60619,-3.611881 4.44916,-7.035266 4.09549,-7.607523 -0.35368,-0.572257 -0.17451,-0.750893 0.39815,-0.396969 0.57267,0.353924 1.55368,0.026 2.18004,-0.728708 0.871,-1.049499 0.79385,-1.504587 -0.32807,-1.935108 -1.003,-0.384888 -3.39038,2.126187 -7.54922,7.940368 -3.34528,4.676798 -5.87635,8.836536 -5.62461,9.243863 0.25174,0.407328 -0.005,1.39411 -0.57064,2.19285 -0.81525,1.151319 -0.90044,1.060311 -0.41112,-0.43919 0.52259,-1.601446 0.38373,-1.697663 -0.90567,-0.627555 C 115.6853,86.67614 115,88.116347 115,89.181462 c 0,1.065114 -0.36743,1.709486 -0.81652,1.431937 -0.44908,-0.277549 -1.60647,0.83266 -2.57198,2.467131 -0.9655,1.634471 -2.85254,4.155531 -4.19341,5.602355 -1.34087,1.446825 -2.26769,2.800845 -2.05959,3.008945 0.20809,0.2081 -0.93362,1.78283 -2.53714,3.49941 -1.60353,1.71658 -2.67447,3.74916 -2.37988,4.51684 0.29458,0.76769 0.11875,1.13816 -0.39074,0.82328 -0.962249,-0.5947 -7.705502,8.39768 -7.287862,9.71864 0.130417,0.4125 -0.198755,0.75 -0.731493,0.75 -0.532739,0 -0.690692,0.72426 -0.351008,1.60946 0.544797,1.41972 0.736793,1.39025 1.628599,-0.25 0.556046,-1.0227 2.083071,-3.20946 3.39339,-4.85946 z m -0.320809,-11.05194 c 0.341496,-0.88992 0.173849,-1.29132 -0.393011,-0.94098 -0.889711,0.54987 -1.420412,-0.77193 -1.106967,-2.75708 C 94.946711,102.3375 94.55,102 94,102 c -0.55,0 -1,-0.49337 -1,-1.09637 0,-1.877144 -7.433424,-12.860984 -8.718615,-12.882874 -0.675391,-0.0115 -0.962027,0.647902 -0.643011,1.479244 0.316582,0.825 0.928675,1.5 1.360207,1.5 0.431532,0 1.047527,1.047572 1.368878,2.327937 0.321351,1.280366 1.607635,3.458125 2.858408,4.839464 1.250773,1.38134 3.132495,4.158769 4.181604,6.172059 2.183397,4.19006 2.177076,4.18558 2.974086,2.1086 z M 83.872445,85.263662 c -0.754845,-0.954985 -2.169502,-2.417485 -3.143684,-3.25 -0.974181,-0.832514 -1.981363,-2.632715 -2.238183,-4.000447 -0.256819,-1.367732 -1.481169,-3.251816 -2.720777,-4.186854 -1.239608,-0.935038 -2.257425,-2.515985 -2.261817,-3.513215 -0.0044,-0.99723 -0.51775,-1.718224 -1.140797,-1.602208 -0.623046,0.116015 -1.478603,-1.233985 -1.901236,-3 C 69.821347,63.017398 69.6317,62.850507 69.289012,64.675219 68.835737,67.088772 73.349026,75 75.179211,75 c 0.634767,0 0.852544,0.301578 0.483948,0.670174 -0.792636,0.792637 1.571294,4.728324 5.153385,8.579826 2.789249,2.99903 5.277605,3.824434 3.055901,1.013662 z M 136.364,63.196249 c 1.4498,-2.092062 2.636,-4.342062 2.636,-5 C 139,57.538312 139.47172,57 140.04827,57 c 0.57655,0 1.68394,-1.4625 2.46086,-3.25 0.77692,-1.7875 1.43188,-2.8 1.45547,-2.25 0.0236,0.55 0.93637,-0.465436 2.02841,-2.256525 1.09204,-1.791089 1.95192,-3.540778 1.91085,-3.888197 -0.0411,-0.347419 0.30125,-0.906983 0.76073,-1.243475 0.45948,-0.336491 1.71018,-1.643668 2.77934,-2.904837 1.51627,-1.788572 1.59454,-2.158958 0.35575,-1.683591 -2.22124,0.852371 -18.96284,23.403616 -18.2412,24.571245 0.3246,0.525213 0.0505,0.831284 -0.60915,0.680157 -0.65963,-0.151128 -1.40558,0.287723 -1.65766,0.975223 -1.03475,2.822048 2.62315,0.980414 5.07233,-2.553751 z M 66.960131,60.451961 C 66.29737,59.653382 65.290466,59 64.722568,59 c -0.567899,0 -0.287799,0.822933 0.622444,1.828741 0.910244,1.005807 1.707189,2.468307 1.770989,3.25 0.06956,0.852225 0.302805,0.701373 0.582576,-0.37678 0.256616,-0.988922 -0.07569,-2.451422 -0.738446,-3.25 z M 65.5,57 c -0.339919,-0.55 -1.293034,-1 -2.118034,-1 -0.825,0 -1.221885,0.45 -0.881966,1 0.339919,0.55 1.293034,1 2.118034,1 0.825,0 1.221885,-0.45 0.881966,-1 z m -2.149034,-3.52778 c -0.573753,-1.495176 -4.197155,-3.959365 -4.854851,-3.301668 -0.887964,0.887964 2.131006,3.634086 5.2225,4.750501 0.120239,0.04342 -0.0452,-0.608554 -0.367649,-1.448833 z m -4.777965,-5.993691 c -1.05985,-0.801825 -2.171818,-1.213046 -2.47104,-0.913824 -0.627692,0.627692 1.912097,2.412683 3.398039,2.388179 0.55,-0.0091 0.13285,-0.67253 -0.926999,-1.474355 z M 56.029806,43.055694 C 54.908024,40.959624 53,39.420858 53,40.612242 53,41.383525 56.04151,45 56.690171,45 c 0.209108,0 -0.08806,-0.874938 -0.660365,-1.944306 z M 51.021533,36.030241 C 47.932266,31.691765 46.654296,31.299756 49.097052,35.439917 50.252327,37.397963 51.633745,39 52.16687,39 c 0.533125,0 0.01772,-1.336392 -1.145337,-2.969759 z M 155.12854,35.75 c 1.08712,-2.040222 1.04378,-2.122041 -0.46482,-0.877555 -0.91505,0.754844 -1.66372,1.767344 -1.66372,2.25 0,1.527484 0.88863,0.954513 2.12854,-1.372445 z m 9.41523,-13.67918 c -0.98324,-1.590907 -2.5669,-0.294659 -1.86731,1.528422 0.38476,1.002666 0.92908,1.195221 1.56919,0.555108 0.53905,-0.539047 0.6732,-1.476635 0.29812,-2.08353 z M 31.043182,157.29633 c -5.238459,-6.25609 -12.826299,-22.8334 -14.677671,-32.06661 -0.912062,-4.54865 -1.436658,-8.49191 -1.165771,-8.76279 0.270888,-0.27089 16.47481,-0.37427 36.008717,-0.22973 l 35.516193,0.2628 -25.517535,22 c -14.034644,12.1 -25.847742,22.13335 -26.251328,22.29633 -0.403587,0.16299 -2.164259,-1.41201 -3.912605,-3.5 z M 135.71511,137.46915 110.93023,116 H 144.96511 179 v 2.7899 c 0,3.45658 -2.16666,11.90779 -4.98188,19.43211 -2.19069,5.85516 -11.37476,20.80214 -12.74793,20.74714 -0.4236,-0.017 -11.92339,-9.69196 -25.55508,-21.5 z m 75.51408,17.36004 c -1.29398,-1.29398 -1.84514,-36.06046 -0.6222,-39.2474 0.49408,-1.28757 2.36012,-1.58179 10.03212,-1.58179 10.57367,0 14.88331,1.30611 18.19299,5.51368 2.60197,3.30787 2.86402,9.23949 0.60148,13.61476 C 237.30567,137.24336 232.56041,139 223.57256,139 h -7.49168 l -0.29044,8.23894 c -0.22638,6.42169 -0.62588,8.30296 -1.81125,8.52919 -0.83645,0.15963 -2.07395,-0.26289 -2.75,-0.93894 z m 21.5483,-22.38589 c 3.07386,-2.15302 3.09292,-8.55448 0.034,-11.40434 C 231.02269,119.37249 229.28719,119 223.31144,119 H 216 v 7.5 7.5 h 7.27749 c 4.96824,0 7.98273,-0.49397 9.5,-1.5567 z m 19.88918,22.89003 C 252.3,154.96667 252,147.99167 252,139.83333 V 125 h 2.5 2.5 v 14.89301 c 0,12.65799 -0.23738,14.9841 -1.58179,15.5 -1.95858,0.75158 -1.93988,0.75199 -2.75154,-0.0597 z m 16.58333,0.004 c -2.61869,-1.05666 -0.97659,-4.41053 7.31997,-14.95045 L 285.13994,129.5 277.06997,129.20956 C 269.821,128.94866 269,128.71976 269,126.95956 269,125.12708 269.74578,125 280.5,125 c 10.98898,0 11.5,0.0926 11.5,2.08464 0,1.14656 -3.6,6.73347 -8,12.41536 -4.4,5.68189 -8,10.5938 -8,10.91536 0,0.32155 3.77686,0.58464 8.39301,0.58464 6.20814,0 8.53068,0.35876 8.92186,1.37814 1.08642,2.83117 -1.6524,3.62233 -12.26487,3.54291 -5.8025,-0.0434 -11.1125,-0.30592 -11.8,-0.58333 z m 34,0 c -2.60538,-1.05129 -0.98819,-4.33755 7.34287,-14.92134 L 319.18574,129.5 311.09287,129.20956 C 303.82115,128.94859 303,128.72029 303,126.95956 303,125.12708 303.74578,125 314.5,125 c 10.98898,0 11.5,0.0926 11.5,2.08464 0,1.14656 -3.6,6.73347 -8,12.41536 -4.4,5.68189 -8,10.5938 -8,10.91536 0,0.32155 3.79844,0.58464 8.44098,0.58464 8.59513,0 10.7278,0.88678 8.52267,3.5438 -0.9277,1.1178 -3.67821,1.43785 -11.83609,1.37725 -5.84516,-0.0434 -11.19006,-0.30592 -11.87756,-0.58333 z m 37.02684,-1.31044 c -5.66707,-3.45535 -5.5485,-10.80073 0.22866,-14.16587 1.64697,-0.95935 5.86659,-2.20522 9.37693,-2.7686 3.51033,-0.56338 6.58873,-1.23064 6.84088,-1.48279 0.25216,-0.25215 -0.14849,-1.73006 -0.89033,-3.28424 -1.15731,-2.42464 -2.01606,-2.86881 -6.04925,-3.12887 -3.8536,-0.24848 -4.93148,0.0668 -5.98265,1.75 -1.51368,2.4238 -5.80108,2.79898 -5.80108,0.50764 0,-2.51348 4.50252,-6.2706 8.38827,-6.99957 5.57912,-1.04665 10.17873,0.24172 13.05145,3.65575 2.43092,2.88899 2.56028,3.63973 2.56028,14.85901 0,9.87889 -0.26074,11.91634 -1.59024,12.42652 C 358.4371,156.15323 357,155.33535 357,153.45568 c 0,-1.12114 -0.69531,-1.00234 -3.25,0.55528 -4.13512,2.52123 -9.35453,2.52755 -13.47316,0.0163 z M 354.75,148.31252 c 0.6875,-0.93213 1.25,-2.47197 1.25,-3.42186 0,-0.9499 0.28531,-2.47059 0.63403,-3.37933 0.54625,-1.42351 0.0963,-1.56161 -3.25,-0.99758 -9.41652,1.58718 -13.2269,4.1262 -11.79443,7.85915 1.41702,3.69269 10.42276,3.65137 13.1604,-0.0604 z M 251.38733,117.56697 c -1.07354,-2.79759 0.40152,-4.72389 3.35698,-4.38394 2.18821,0.2517 2.75569,0.8318 2.75569,2.81697 0,1.98517 -0.56748,2.56527 -2.75569,2.81697 -1.79706,0.20671 -2.96486,-0.22813 -3.35698,-1.25 z M 188.44625,99.720526 c -0.27004,-0.70371 -0.36842,-10.04121 -0.21861,-20.75 L 188.5,59.5 l 7,-0.32666 c 9.24362,-0.431359 16.59682,1.236366 19.61459,4.448637 1.92061,2.044393 2.38541,3.617422 2.38541,8.072945 0,5.171773 -0.25045,5.750289 -3.8283,8.843096 l -3.82829,3.309301 4.53323,7.821399 c 2.49329,4.301769 4.15132,8.203323 3.68452,8.670122 -2.02162,2.02162 -4.76655,-0.344893 -9.38804,-8.093823 L 203.75577,84 H 198.87788 194 v 6.918213 c 0,3.805016 -0.27314,7.630016 -0.60699,8.5 -0.727,1.894527 -4.25308,2.110017 -4.94676,0.302313 z M 210,77 c 2.62989,-2.629889 2.64336,-8.107795 0.0258,-10.476689 -1.347,-1.219021 -4.20641,-1.946376 -9,-2.289355 L 194,63.731265 V 71.365633 79 h 7 c 5.66667,0 7.38095,-0.380952 9,-2 z m 25.0964,22.791781 C 230.71307,97.436024 228.61991,93.449724 228.24265,86.739229 227.63711,75.968194 232.74098,69.615385 242,69.615385 c 5.87025,0 9.60632,2.274168 12.24845,7.4557 3.17095,6.218617 1.79426,16.661256 -2.76063,20.940353 -3.02575,2.842552 -12.50022,3.871612 -16.39142,1.780343 z m 10.21934,-3.955124 c 3.69012,-1.965371 4.6194,-4.089021 4.65246,-10.632112 0.0272,-5.37462 -0.32723,-6.65448 -2.42275,-8.75 C 245.99822,74.907308 243.94837,74 242,74 c -1.94837,0 -3.99822,0.907308 -5.54545,2.454545 C 234.38401,78.525076 234,79.86519 234,85.020287 c 0,6.858191 1.11031,9.681384 4.31537,10.972733 3.03316,1.22209 4.4726,1.189938 7.00037,-0.156363 z m 26.19794,2.995443 c -7.56998,-5.954546 -7.33278,-23.360179 0.37116,-27.235811 8.65106,-4.352096 19.51604,-0.932489 20.33598,6.400476 0.43461,3.88677 -3.64271,4.021858 -5.6261,0.186402 -2.53969,-4.911217 -8.15765,-5.71115 -12.14017,-1.728622 C 272.35709,78.551998 272,79.845222 272,85.343761 c 0,8.097011 1.82978,10.792676 7.43373,10.951526 3.19458,0.09055 4.32862,-0.445883 6.53842,-3.092866 4.05999,-4.863207 8.06531,-4.061338 6.05993,1.213203 -2.37813,6.254956 -14.7859,8.925666 -20.5184,4.416476 z m 33.15299,1.50123 C 304.3,99.966667 304,90.516667 304,79.333333 V 59 h 2.5 2.5 v 10.5 c 0,5.775 0.27161,10.5 0.60358,10.5 0.33197,0 3.29632,-2.25 6.58744,-5 3.65534,-3.05433 6.95121,-5 8.46975,-5 3.87026,0 2.56011,2.240963 -4.85188,8.298974 l -6.69111,5.468817 7.93484,7.72175 c 4.36415,4.246963 7.68609,8.12421 7.38209,8.616109 -1.3962,2.25909 -5.11705,0.42335 -11.362,-5.60565 C 313.36965,90.925 310.0384,88 309.66994,88 309.30147,88 309,90.925 309,94.5 c 0,5.63636 -0.24359,6.5 -1.83333,6.5 -1.00834,0 -2.13334,-0.3 -2.5,-0.66667 z m 60.10847,-0.835965 C 362.37178,98.143566 360,95.197374 360,93.565741 360,92.228024 364.39415,93.16488 366.72713,95 c 1.39851,1.10007 4.05678,2 5.90773,2 C 375.87529,97 380,94.212754 380,92.023053 c 0,-1.542807 -4.00997,-3.678672 -10.20337,-5.434711 -8.46767,-2.400874 -11.08185,-7.413432 -6.74301,-12.929377 3.99851,-5.083282 14.2032,-5.402141 19.01131,-0.594032 3.89383,3.893823 0.7388,6.499042 -3.67039,3.030774 C 375.46588,73.792021 370.08109,73.318906 368.2,75.2 c -0.66,0.66 -1.2,2.215945 -1.2,3.457655 0,1.931819 1.01898,2.561119 7.0603,4.360305 3.88317,1.156457 7.93317,2.975512 9,4.042345 2.82073,2.820726 2.53945,8.027632 -0.59261,10.970045 -3.22639,3.03104 -13.41605,3.87594 -17.69255,1.467015 z M 338,64.696167 c 0,-0.717108 1.54264,-2.799015 3.42808,-4.626459 2.86372,-2.775631 3.89264,-3.203837 6.25,-2.601064 L 350.5,58.190205 346,62.092397 c -4.50934,3.910293 -8,5.046402 -8,2.60377 z"
         id="path173" />
      <path
         style="fill:#f1ca32"
         d="M 81.5,188.51712 C 72.494624,186.84163 62.490503,183.14368 55.420891,178.87718 50.090026,175.66001 39.72182,167.45885 39.302258,166.12748 39.193501,165.78237 41.621804,163.475 44.698487,161 c 3.076684,-2.475 8.436624,-6.87665 11.910977,-9.78143 5.592703,-4.67587 6.545326,-5.13885 8.308293,-4.03786 1.095207,0.68397 2.165951,1.03561 2.379429,0.78144 C 67.510665,147.70797 72.32095,141.2 77.986708,133.5 c 5.665758,-7.7 11.34709,-15.4135 12.625181,-17.14112 l 2.323803,-3.14112 -14.16539,-22.085095 C 65.921418,71.100122 64.453312,69.184771 62.973716,70.523787 62.076557,71.335704 61.037235,72 60.66411,72 59.837392,72 37,52.888916 37,52.197091 c 0,-0.270234 2.526801,-2.787636 5.615112,-5.594227 l 5.615113,-5.102892 -3.777416,-6.499986 C 42.37523,31.424994 39.623429,27.227974 38.337696,25.673275 35.918824,22.748392 35.12397,16.65945 37.008949,15.494469 c 2.044671,-1.263676 5.215611,0.799509 6.688488,4.351893 0.833173,2.009501 3.746003,6.672678 6.472957,10.362615 l 4.958098,6.708978 5.685754,-2.558088 c 9.219969,-4.148173 15.872466,-6.233228 22.993414,-7.206695 3.680787,-0.503181 6.771587,-0.851745 6.868444,-0.774586 0.09686,0.07716 0.321857,7.203636 0.5,15.836618 L 91.5,57.911533 87.791728,58.536615 c -2.345648,0.395391 -3.921322,1.296338 -4.288068,2.451852 -0.773855,2.438201 -3.186942,3.251403 -5.683461,1.915306 C 76.546651,62.222191 75.432716,62.167284 74.842978,62.757022 73.615956,63.984044 85.61966,82.744509 88.144521,83.545869 89.175343,83.873039 90,85.067522 90,86.233455 c 0,2.749664 9.00167,17.172125 10.04619,16.095985 0.4428,-0.45619 5.50011,-7.337526 11.23846,-15.291852 8.79307,-12.188667 10.21972,-14.676074 9.07437,-15.821429 -1.91046,-1.910456 -1.69035,-3.870682 0.61604,-5.486136 1.89016,-1.323923 1.8203,-1.457183 -1.62532,-3.100288 -3.49014,-1.664328 -3.64422,-1.654325 -5.03177,0.326682 -2.94911,4.21045 -10.71794,1.134238 -8.92636,-3.534558 C 105.79631,58.367222 105.07268,58 102.58976,58 H 99.242293 L 98.513114,42.441366 c -0.401049,-8.557249 -0.469859,-15.817954 -0.152912,-16.134901 0.316947,-0.316947 4.665028,-0.05191 9.662398,0.588981 10.48766,1.344989 23.0089,5.617583 31.12813,10.621787 C 142.25863,39.432755 145.03075,41 145.311,41 c 0.95615,0 12.92183,-15.490201 14.50785,-18.781163 1.54965,-3.215489 5.02909,-5.048886 7.12431,-3.753963 2.31954,1.433552 1.12602,7.450564 -2.23792,11.282245 -1.81211,2.064085 -5.23731,6.786301 -7.61155,10.493815 l -4.31679,6.740935 3.11155,3.543862 C 157.5998,52.474855 159,54.235717 159,54.438758 c 0,0.614757 -22.96954,19.558473 -23.76267,19.597836 -0.40553,0.02013 -7.0787,8.948555 -14.82926,19.840952 l -14.09193,19.804354 11.09193,17.05072 c 11.01526,16.93286 11.10602,17.0378 13.13071,15.18316 2.01437,-1.84518 2.18493,-1.74567 14.24361,8.31029 l 12.20483,10.17783 -2.74361,2.886 c -4.27731,4.4993 -19.43161,14.26231 -25.89856,16.6849 -7.64624,2.86436 -15.75202,4.84788 -21.34505,5.22321 l -4.5,0.30199 -0.27472,-15.61824 -0.27473,-15.61824 4.27473,-0.77186 c 6.39595,-1.15487 6.79128,-1.25588 9.81092,-2.50666 l 2.79065,-1.15592 -3.66343,-5.86933 c -2.01488,-3.22813 -4.39582,-5.88967 -5.29098,-5.91454 -2.28286,-0.0634 -3.90582,-2.32293 -3.69824,-5.14878 0.16943,-2.30655 -5.64873,-12.96005 -7.009974,-12.8358 -0.365324,0.0333 -5.509742,6.89585 -11.432038,15.25 L 76.964375,154.5 l 3.193923,1.32473 c 2.562042,1.06264 3.651755,1.0797 5.508097,0.0862 1.932888,-1.03445 2.61708,-0.96438 4.15263,0.42527 1.011151,0.91508 2.345132,1.66378 2.964403,1.66378 1.500217,0 2.034931,4.01583 2.563169,19.25 l 0.442101,12.75 -3.644349,-0.0902 C 90.139957,189.86011 85.35,189.23343 81.5,188.51712 Z M 63.151224,164.37863 c 1.291827,-1.99175 3.305039,-5.34799 4.473805,-7.4583 1.168766,-2.11032 2.373085,-3.58888 2.676264,-3.2857 0.303179,0.30318 1.261442,-0.82216 2.129474,-2.50075 0.868032,-1.67859 2.588714,-4.15256 3.823737,-5.49773 3.066003,-3.33942 4.022339,-4.58627 7.195731,-9.38159 3.871771,-5.85064 2.191005,-7.38197 -2.03197,-1.85131 -3.622572,4.74434 -4.207164,6.1144 -2.168265,5.08159 0.6875,-0.34825 -0.0059,0.35111 -1.540841,1.55414 -3.577039,2.80352 -7.802415,9.00111 -7.010425,10.28258 0.335656,0.5431 0.113332,0.68032 -0.494052,0.30494 -0.969291,-0.59905 -3.572517,2.65065 -3.669247,4.58045 -0.01949,0.38883 -0.750166,1.28883 -1.623725,2 C 63.483183,159.36994 59,166.46072 59,167.55716 c 0,1.54876 2.155729,-0.10185 4.151224,-3.17853 z M 134.22562,165.25 c -1.05081,-1.5125 -3.17797,-5.1125 -4.72702,-8 -1.54905,-2.8875 -3.2215,-5.25 -3.71655,-5.25 -0.92493,0 -0.61717,0.68367 2.25077,5 0.9136,1.375 2.86135,4.4125 4.32833,6.75 1.46697,2.3375 2.91648,4.25 3.22113,4.25 0.30465,0 -0.30585,-1.2375 -1.35666,-2.75 z m -10.91908,-18.32207 c -0.9936,-1.68964 -2.48154,-3.82714 -3.30654,-4.75 -0.825,-0.92286 -2.13854,-2.91543 -2.91898,-4.42793 -0.78044,-1.5125 -1.8195,-2.75 -2.30902,-2.75 -1.01373,0 -0.63018,0.74198 3.61847,7 5.34176,7.86811 8.5164,11.05041 4.91607,4.92793 z M 96.702366,117.5 C 100.96149,112.13676 109.92556,99.956468 116.5,90.599167 c 2.2,-3.131226 6.13234,-8.648313 8.73854,-12.260194 2.60619,-3.611881 4.44916,-7.035266 4.09549,-7.607523 -0.35368,-0.572257 -0.17451,-0.750893 0.39815,-0.396969 0.57267,0.353924 1.55368,0.026 2.18004,-0.728708 0.871,-1.049499 0.79385,-1.504587 -0.32807,-1.935108 -1.003,-0.384888 -3.39038,2.126187 -7.54922,7.940368 -3.34528,4.676798 -5.87635,8.836536 -5.62461,9.243863 0.25174,0.407328 -0.005,1.39411 -0.57064,2.19285 -0.81525,1.151319 -0.90044,1.060311 -0.41112,-0.43919 0.52259,-1.601446 0.38373,-1.697663 -0.90567,-0.627555 C 115.6853,86.67614 115,88.116347 115,89.181462 c 0,1.065114 -0.36743,1.709486 -0.81652,1.431937 -0.44908,-0.277549 -1.60647,0.83266 -2.57198,2.467131 -0.9655,1.634471 -2.85254,4.155531 -4.19341,5.602355 -1.34087,1.446825 -2.26769,2.800845 -2.05959,3.008945 0.20809,0.2081 -0.93362,1.78283 -2.53714,3.49941 -1.60353,1.71658 -2.67447,3.74916 -2.37988,4.51684 0.29458,0.76769 0.11875,1.13816 -0.39074,0.82328 -0.962249,-0.5947 -7.705502,8.39768 -7.287862,9.71864 0.130417,0.4125 -0.198755,0.75 -0.731493,0.75 -0.532739,0 -0.690692,0.72426 -0.351008,1.60946 0.544797,1.41972 0.736793,1.39025 1.628599,-0.25 0.556046,-1.0227 2.083071,-3.20946 3.39339,-4.85946 z m -0.320809,-11.05194 c 0.341496,-0.88992 0.173849,-1.29132 -0.393011,-0.94098 -0.889711,0.54987 -1.420412,-0.77193 -1.106967,-2.75708 C 94.946711,102.3375 94.55,102 94,102 c -0.55,0 -1,-0.49337 -1,-1.09637 0,-1.877144 -7.433424,-12.860984 -8.718615,-12.882874 -0.675391,-0.0115 -0.962027,0.647902 -0.643011,1.479244 0.316582,0.825 0.928675,1.5 1.360207,1.5 0.431532,0 1.047527,1.047572 1.368878,2.327937 0.321351,1.280366 1.607635,3.458125 2.858408,4.839464 1.250773,1.38134 3.132495,4.158769 4.181604,6.172059 2.183397,4.19006 2.177076,4.18558 2.974086,2.1086 z M 83.872445,85.263662 c -0.754845,-0.954985 -2.169502,-2.417485 -3.143684,-3.25 -0.974181,-0.832514 -1.981363,-2.632715 -2.238183,-4.000447 -0.256819,-1.367732 -1.481169,-3.251816 -2.720777,-4.186854 -1.239608,-0.935038 -2.257425,-2.515985 -2.261817,-3.513215 -0.0044,-0.99723 -0.51775,-1.718224 -1.140797,-1.602208 -0.623046,0.116015 -1.478603,-1.233985 -1.901236,-3 C 69.821347,63.017398 69.6317,62.850507 69.289012,64.675219 68.835737,67.088772 73.349026,75 75.179211,75 c 0.634767,0 0.852544,0.301578 0.483948,0.670174 -0.792636,0.792637 1.571294,4.728324 5.153385,8.579826 2.789249,2.99903 5.277605,3.824434 3.055901,1.013662 z M 136.364,63.196249 c 1.4498,-2.092062 2.636,-4.342062 2.636,-5 C 139,57.538312 139.47172,57 140.04827,57 c 0.57655,0 1.68394,-1.4625 2.46086,-3.25 0.77692,-1.7875 1.43188,-2.8 1.45547,-2.25 0.0236,0.55 0.93637,-0.465436 2.02841,-2.256525 1.09204,-1.791089 1.95192,-3.540778 1.91085,-3.888197 -0.0411,-0.347419 0.30125,-0.906983 0.76073,-1.243475 0.45948,-0.336491 1.71018,-1.643668 2.77934,-2.904837 1.51627,-1.788572 1.59454,-2.158958 0.35575,-1.683591 -2.22124,0.852371 -18.96284,23.403616 -18.2412,24.571245 0.3246,0.525213 0.0505,0.831284 -0.60915,0.680157 -0.65963,-0.151128 -1.40558,0.287723 -1.65766,0.975223 -1.03475,2.822048 2.62315,0.980414 5.07233,-2.553751 z M 66.960131,60.451961 C 66.29737,59.653382 65.290466,59 64.722568,59 c -0.567899,0 -0.287799,0.822933 0.622444,1.828741 0.910244,1.005807 1.707189,2.468307 1.770989,3.25 0.06956,0.852225 0.302805,0.701373 0.582576,-0.37678 0.256616,-0.988922 -0.07569,-2.451422 -0.738446,-3.25 z M 65.5,57 c -0.339919,-0.55 -1.293034,-1 -2.118034,-1 -0.825,0 -1.221885,0.45 -0.881966,1 0.339919,0.55 1.293034,1 2.118034,1 0.825,0 1.221885,-0.45 0.881966,-1 z m -2.149034,-3.52778 c -0.573753,-1.495176 -4.197155,-3.959365 -4.854851,-3.301668 -0.887964,0.887964 2.131006,3.634086 5.2225,4.750501 0.120239,0.04342 -0.0452,-0.608554 -0.367649,-1.448833 z m -4.777965,-5.993691 c -1.05985,-0.801825 -2.171818,-1.213046 -2.47104,-0.913824 -0.627692,0.627692 1.912097,2.412683 3.398039,2.388179 0.55,-0.0091 0.13285,-0.67253 -0.926999,-1.474355 z M 56.029806,43.055694 C 54.908024,40.959624 53,39.420858 53,40.612242 53,41.383525 56.04151,45 56.690171,45 c 0.209108,0 -0.08806,-0.874938 -0.660365,-1.944306 z M 51.021533,36.030241 C 47.932266,31.691765 46.654296,31.299756 49.097052,35.439917 50.252327,37.397963 51.633745,39 52.16687,39 c 0.533125,0 0.01772,-1.336392 -1.145337,-2.969759 z M 155.12854,35.75 c 1.08712,-2.040222 1.04378,-2.122041 -0.46482,-0.877555 -0.91505,0.754844 -1.66372,1.767344 -1.66372,2.25 0,1.527484 0.88863,0.954513 2.12854,-1.372445 z m 9.41523,-13.67918 c -0.98324,-1.590907 -2.5669,-0.294659 -1.86731,1.528422 0.38476,1.002666 0.92908,1.195221 1.56919,0.555108 0.53905,-0.539047 0.6732,-1.476635 0.29812,-2.08353 z M 31.043182,157.29633 C 24.216413,149.14338 15,126.24381 15,117.43462 15,116.24823 17.768499,116 31,116 c 10.594433,0 16,0.35779 16,1.05902 0,0.58246 0.454027,0.77841 1.008949,0.43545 0.554921,-0.34296 1.904921,-0.33919 3,0.008 2.747932,0.87216 2.720424,5.49366 -0.03699,6.21474 -1.524935,0.39878 -1.871288,1.05777 -1.39616,2.65638 0.769997,2.59074 5.18723,10.52958 7.078674,12.72211 1.214543,1.40788 0.06614,2.76384 -9.739674,11.5 -6.114111,5.44716 -11.47122,10.03728 -11.904685,10.20026 -0.433465,0.16299 -2.218584,-1.41201 -3.96693,-3.5 z m 120.449248,-6.4274 c -4.94583,-4.47208 -10.00493,-8.79884 -11.24243,-9.61501 -2.76016,-1.8204 -2.93338,-5.66186 -0.3373,-7.48022 1.05199,-0.73684 2.71079,-3.01333 3.68624,-5.05886 1.74364,-3.65646 1.73668,-3.7535 -0.4127,-5.75596 C 141.98381,121.83865 141,120.35462 141,119.66104 141,116.43063 143.37605,116 161.2,116 H 179 v 2.7899 c 0,3.45658 -2.16666,11.90779 -4.98188,19.43211 C 171.8366,144.05266 162.6605,159 161.26262,159 c -0.42776,0 -4.82435,-3.65898 -9.77019,-8.13107 z m 59.73676,3.96026 c -1.29398,-1.29398 -1.84514,-36.06046 -0.6222,-39.2474 0.49408,-1.28757 2.36012,-1.58179 10.03212,-1.58179 10.57367,0 14.88331,1.30611 18.19299,5.51368 2.60197,3.30787 2.86402,9.23949 0.60148,13.61476 C 237.30567,137.24336 232.56041,139 223.57256,139 h -7.49168 l -0.29044,8.23894 c -0.22638,6.42169 -0.62588,8.30296 -1.81125,8.52919 -0.83645,0.15963 -2.07395,-0.26289 -2.75,-0.93894 z m 21.5483,-22.38589 c 3.07386,-2.15302 3.09292,-8.55448 0.034,-11.40434 C 231.02269,119.37249 229.28719,119 223.31144,119 H 216 v 7.5 7.5 h 7.27749 c 4.96824,0 7.98273,-0.49397 9.5,-1.5567 z m 19.88918,22.89003 C 252.3,154.96667 252,147.99167 252,139.83333 V 125 h 2.5 2.5 v 14.89301 c 0,12.65799 -0.23738,14.9841 -1.58179,15.5 -1.95858,0.75158 -1.93988,0.75199 -2.75154,-0.0597 z m 16.58333,0.004 c -2.61869,-1.05666 -0.97659,-4.41053 7.31997,-14.95045 L 285.13994,129.5 277.06997,129.20956 C 269.821,128.94866 269,128.71976 269,126.95956 269,125.12708 269.74578,125 280.5,125 c 10.98898,0 11.5,0.0926 11.5,2.08464 0,1.14656 -3.6,6.73347 -8,12.41536 -4.4,5.68189 -8,10.5938 -8,10.91536 0,0.32155 3.77686,0.58464 8.39301,0.58464 6.20814,0 8.53068,0.35876 8.92186,1.37814 1.08642,2.83117 -1.6524,3.62233 -12.26487,3.54291 -5.8025,-0.0434 -11.1125,-0.30592 -11.8,-0.58333 z m 34,0 c -2.60538,-1.05129 -0.98819,-4.33755 7.34287,-14.92134 L 319.18574,129.5 311.09287,129.20956 C 303.82115,128.94859 303,128.72029 303,126.95956 303,125.12708 303.74578,125 314.5,125 c 10.98898,0 11.5,0.0926 11.5,2.08464 0,1.14656 -3.6,6.73347 -8,12.41536 -4.4,5.68189 -8,10.5938 -8,10.91536 0,0.32155 3.79844,0.58464 8.44098,0.58464 8.59513,0 10.7278,0.88678 8.52267,3.5438 -0.9277,1.1178 -3.67821,1.43785 -11.83609,1.37725 -5.84516,-0.0434 -11.19006,-0.30592 -11.87756,-0.58333 z m 37.02684,-1.31044 c -5.66707,-3.45535 -5.5485,-10.80073 0.22866,-14.16587 1.64697,-0.95935 5.86659,-2.20522 9.37693,-2.7686 3.51033,-0.56338 6.58873,-1.23064 6.84088,-1.48279 0.25216,-0.25215 -0.14849,-1.73006 -0.89033,-3.28424 -1.15731,-2.42464 -2.01606,-2.86881 -6.04925,-3.12887 -3.8536,-0.24848 -4.93148,0.0668 -5.98265,1.75 -1.51368,2.4238 -5.80108,2.79898 -5.80108,0.50764 0,-2.51348 4.50252,-6.2706 8.38827,-6.99957 5.57912,-1.04665 10.17873,0.24172 13.05145,3.65575 2.43092,2.88899 2.56028,3.63973 2.56028,14.85901 0,9.87889 -0.26074,11.91634 -1.59024,12.42652 C 358.4371,156.15323 357,155.33535 357,153.45568 c 0,-1.12114 -0.69531,-1.00234 -3.25,0.55528 -4.13512,2.52123 -9.35453,2.52755 -13.47316,0.0163 z M 354.75,148.31252 c 0.6875,-0.93213 1.25,-2.47197 1.25,-3.42186 0,-0.9499 0.28531,-2.47059 0.63403,-3.37933 0.54625,-1.42351 0.0963,-1.56161 -3.25,-0.99758 -9.41652,1.58718 -13.2269,4.1262 -11.79443,7.85915 1.41702,3.69269 10.42276,3.65137 13.1604,-0.0604 z M 119.65913,121.5541 c -1.0447,-2.72247 0.40434,-4.68456 3.21862,-4.3582 2.04931,0.23766 2.62225,0.85033 2.62225,2.8041 0,1.95377 -0.57294,2.56644 -2.62225,2.8041 -1.66109,0.19263 -2.84085,-0.26555 -3.21862,-1.25 z m -48.186203,-1.5979 c -0.918142,-1.48559 1.397719,-3.94307 3.100186,-3.28977 2.191924,0.84112 1.777611,4.33357 -0.514096,4.33357 -1.067541,0 -2.231281,-0.46971 -2.58609,-1.0438 z m 179.914403,-2.38923 c -1.07354,-2.79759 0.40152,-4.72389 3.35698,-4.38394 2.18821,0.2517 2.75569,0.8318 2.75569,2.81697 0,1.98517 -0.56748,2.56527 -2.75569,2.81697 -1.79706,0.20671 -2.96486,-0.22813 -3.35698,-1.25 z M 163.75,108.22461 c -10.74617,-0.1879 -15.75,-0.62943 -15.75,-1.38976 0,-0.6129 -0.76969,-1.67718 -1.71043,-2.36506 -1.45835,-1.06638 -1.52964,-1.64747 -0.48374,-3.94299 1.47946,-3.247059 0.35883,-8.250777 -3.43029,-15.316464 L 139.84953,80.5 l 5.32523,-4.844491 c 16.58407,-15.086913 17.86054,-16.049909 19.3137,-14.570717 3.18445,3.241492 8.74809,13.939578 11.06707,21.280393 1.96797,6.229677 5.09956,25.893805 4.15508,26.090875 -0.11584,0.0242 -7.29811,-0.08 -15.96061,-0.23145 z M 15,102.15996 c 0,-11.140789 5.757731,-28.18946 13.307079,-39.40233 1.756107,-2.608304 3.706154,-4.633304 4.333438,-4.5 C 34.124051,58.572894 55,77.121427 55,78.1243 c 0,0.421129 -1.575,3.903982 -3.5,7.739674 -3.62643,7.225905 -4.554866,10.590892 -2.3,8.336026 3.233329,-3.233329 8.743848,1.752881 5.824577,5.270386 -1.713175,2.064254 -5.696783,1.937124 -6.906087,-0.220386 -0.776284,-1.384965 -1.126409,-0.654894 -1.67852,3.5 L 45.742339,108 H 30.371169 15 Z m 54.712576,0.21928 c -1.189564,-1.18956 -0.799329,-4.062352 0.723502,-5.326189 2.139108,-1.775302 5.777482,0.434696 5.374606,3.264609 -0.311743,2.18978 -4.540351,3.61934 -6.098108,2.06158 z m 50.596894,-1.01516 C 119.48222,99.208303 121.2587,96.5 123.5,96.5 c 2.2413,0 4.01778,2.708303 3.19053,4.86408 -0.8209,2.13924 -5.56016,2.13924 -6.38106,0 z m 68.13678,-1.643554 c -0.27004,-0.70371 -0.36842,-10.04121 -0.21861,-20.75 L 188.5,59.5 l 7,-0.32666 c 9.24362,-0.431359 16.59682,1.236366 19.61459,4.448637 1.92061,2.044393 2.38541,3.617422 2.38541,8.072945 0,5.171773 -0.25045,5.750289 -3.8283,8.843096 l -3.82829,3.309301 4.53323,7.821399 c 2.49329,4.301769 4.15132,8.203323 3.68452,8.670122 -2.02162,2.02162 -4.76655,-0.344893 -9.38804,-8.093823 L 203.75577,84 H 198.87788 194 v 6.918213 c 0,3.805016 -0.27314,7.630016 -0.60699,8.5 -0.727,1.894527 -4.25308,2.110017 -4.94676,0.302313 z M 210,77 c 2.62989,-2.629889 2.64336,-8.107795 0.0258,-10.476689 -1.347,-1.219021 -4.20641,-1.946376 -9,-2.289355 L 194,63.731265 V 71.365633 79 h 7 c 5.66667,0 7.38095,-0.380952 9,-2 z m 25.0964,22.791781 C 230.71307,97.436024 228.61991,93.449724 228.24265,86.739229 227.63711,75.968194 232.74098,69.615385 242,69.615385 c 5.87025,0 9.60632,2.274168 12.24845,7.4557 3.17095,6.218617 1.79426,16.661256 -2.76063,20.940353 -3.02575,2.842552 -12.50022,3.871612 -16.39142,1.780343 z m 10.21934,-3.955124 c 3.69012,-1.965371 4.6194,-4.089021 4.65246,-10.632112 0.0272,-5.37462 -0.32723,-6.65448 -2.42275,-8.75 C 245.99822,74.907308 243.94837,74 242,74 c -1.94837,0 -3.99822,0.907308 -5.54545,2.454545 C 234.38401,78.525076 234,79.86519 234,85.020287 c 0,6.858191 1.11031,9.681384 4.31537,10.972733 3.03316,1.22209 4.4726,1.189938 7.00037,-0.156363 z m 26.19794,2.995443 c -7.56998,-5.954546 -7.33278,-23.360179 0.37116,-27.235811 8.65106,-4.352096 19.51604,-0.932489 20.33598,6.400476 0.43461,3.88677 -3.64271,4.021858 -5.6261,0.186402 -2.53969,-4.911217 -8.15765,-5.71115 -12.14017,-1.728622 C 272.35709,78.551998 272,79.845222 272,85.343761 c 0,8.097011 1.82978,10.792676 7.43373,10.951526 3.19458,0.09055 4.32862,-0.445883 6.53842,-3.092866 4.05999,-4.863207 8.06531,-4.061338 6.05993,1.213203 -2.37813,6.254956 -14.7859,8.925666 -20.5184,4.416476 z m 33.15299,1.50123 C 304.3,99.966667 304,90.516667 304,79.333333 V 59 h 2.5 2.5 v 10.5 c 0,5.775 0.27161,10.5 0.60358,10.5 0.33197,0 3.29632,-2.25 6.58744,-5 3.65534,-3.05433 6.95121,-5 8.46975,-5 3.87026,0 2.56011,2.240963 -4.85188,8.298974 l -6.69111,5.468817 7.93484,7.72175 c 4.36415,4.246963 7.68609,8.12421 7.38209,8.616109 -1.3962,2.25909 -5.11705,0.42335 -11.362,-5.60565 C 313.36965,90.925 310.0384,88 309.66994,88 309.30147,88 309,90.925 309,94.5 c 0,5.63636 -0.24359,6.5 -1.83333,6.5 -1.00834,0 -2.13334,-0.3 -2.5,-0.66667 z m 60.10847,-0.835965 C 362.37178,98.143566 360,95.197374 360,93.565741 360,92.228024 364.39415,93.16488 366.72713,95 c 1.39851,1.10007 4.05678,2 5.90773,2 C 375.87529,97 380,94.212754 380,92.023053 c 0,-1.542807 -4.00997,-3.678672 -10.20337,-5.434711 -8.46767,-2.400874 -11.08185,-7.413432 -6.74301,-12.929377 3.99851,-5.083282 14.2032,-5.402141 19.01131,-0.594032 3.89383,3.893823 0.7388,6.499042 -3.67039,3.030774 C 375.46588,73.792021 370.08109,73.318906 368.2,75.2 c -0.66,0.66 -1.2,2.215945 -1.2,3.457655 0,1.931819 1.01898,2.561119 7.0603,4.360305 3.88317,1.156457 7.93317,2.975512 9,4.042345 2.82073,2.820726 2.53945,8.027632 -0.59261,10.970045 -3.22639,3.03104 -13.41605,3.87594 -17.69255,1.467015 z m -260.6299,-13.82236 c -2.24669,-2.707091 0.94951,-6.343348 4.40886,-5.015873 2.36565,0.907787 1.46203,5.767125 -1.14161,6.139125 -1.14812,0.164041 -2.61839,-0.341422 -3.26725,-1.123252 z M 338,64.696167 c 0,-0.717108 1.54264,-2.799015 3.42808,-4.626459 2.86372,-2.775631 3.89264,-3.203837 6.25,-2.601064 L 350.5,58.190205 346,62.092397 c -4.50934,3.910293 -8,5.046402 -8,2.60377 z"
         id="path171" />
      <path
         style="fill:#df9b61"
         d="M 81.5,188.49677 C 66.406748,185.64473 54.173766,179.61688 42.128725,169.09642 l -3.371275,-2.94456 3.648489,-3.20342 c 8.617064,-7.56588 8.04378,-7.37049 11.841651,-4.03591 l 3.371501,2.96021 11.684985,-16.18637 c 6.426741,-8.9025 14.361978,-19.86992 17.63386,-24.37204 L 92.886812,113.12865 77.616025,89.314325 C 69.217092,76.216446 61.099799,63.3625 59.577597,60.75 58.055395,58.1375 56.486907,56 56.092069,56 55.697232,56 54.0808,57.35 52.5,59 c -1.5808,1.65 -3.352491,2.980518 -3.937091,2.956706 -0.5846,-0.02381 -3.525484,-2.24907 -6.535299,-4.945019 l -5.47239,-4.901724 5.837503,-5.304996 5.837502,-5.304995 -3.777416,-6.499986 C 42.37523,31.424994 39.623429,27.227974 38.337696,25.673275 35.918824,22.748392 35.12397,16.65945 37.008949,15.494469 c 2.044671,-1.263676 5.215611,0.799509 6.688488,4.351893 0.833173,2.009501 3.746003,6.672678 6.472957,10.362615 l 4.958098,6.708978 5.685754,-2.558088 c 8.597033,-3.867907 15.58578,-6.157895 20.897568,-6.847464 2.633502,-0.341877 5.800686,-0.8306 7.038186,-1.086051 2.181671,-0.450351 2.25,-0.2261 2.25,7.384294 v 7.848751 l -7.75,1.677675 c -9.722872,2.104751 -18.695149,6.128403 -17.612562,7.89842 6.222468,10.17367 20.85667,31.422294 22.371856,32.483571 C 89.104182,84.485953 90,85.837621 90,86.722771 c 0,2.470689 9.124292,16.552939 10.09571,15.581519 0.47003,-0.47003 5.55917,-7.319532 11.30921,-15.221113 9.06472,-12.456557 10.26452,-14.556591 9.02484,-15.796273 -1.71291,-1.712906 -1.72532,-1.866123 -0.35826,-4.420512 0.78326,-1.463533 1.88581,-1.916709 4.09854,-1.684608 2.68154,0.281276 3.48402,-0.330741 7.03082,-5.362071 2.20208,-3.123774 3.74944,-6.091119 3.43858,-6.5941 C 132.4709,49.716842 109.92355,42 101.84004,42 H 98 v -8 c 0,-9.205374 -0.910635,-8.662878 11.61674,-6.920481 9.39499,1.306724 21.87558,5.717533 29.53399,10.437714 C 142.25863,39.432755 145.03075,41 145.311,41 c 0.95615,0 12.92183,-15.490201 14.50785,-18.781163 1.54965,-3.215489 5.02909,-5.048886 7.12431,-3.753963 2.31954,1.433552 1.12602,7.450564 -2.23792,11.282245 -1.81211,2.064085 -5.23731,6.786301 -7.61155,10.493815 l -4.31679,6.740935 3.11155,3.543862 C 157.5998,52.474855 159,54.224271 159,54.413322 c 0,0.189052 -2.49487,2.47516 -5.54414,5.080241 -5.44451,4.65139 -5.58077,4.703368 -7.58199,2.892288 -1.85774,-1.681226 -2.11845,-1.700202 -2.94978,-0.214695 -0.50156,0.896241 -8.94302,12.852876 -18.7588,26.570301 l -17.84688,24.940773 14.25333,21.90888 c 7.83933,12.04989 14.85519,22.7147 15.5908,23.69959 1.258,1.68431 1.55967,1.6062 5.0779,-1.31493 4.14473,-3.4413 4.08652,-3.45423 10.9801,2.44005 l 4.72053,4.03625 -2.72053,2.86191 c -4.25726,4.47849 -19.42364,14.24388 -25.87549,16.66082 -7.64624,2.86436 -15.75202,4.84788 -21.34505,5.22321 l -4.5,0.30199 -0.2899,-7.62979 -0.2899,-7.62979 5.2899,-0.66285 c 4.81853,-0.60378 18.27033,-4.72467 19.52794,-5.98228 0.98883,-0.98883 -15.19632,-25.51205 -16.8656,-25.55419 -2.28148,-0.0576 -3.90592,-2.31739 -3.69824,-5.14467 0.1691,-2.30203 -5.64252,-12.95104 -7.009974,-12.84485 -0.365324,0.0284 -3.364226,3.93068 -6.664226,8.67179 -3.3,4.74111 -10.310755,14.54367 -15.579455,21.78346 l -9.579454,13.16327 5.579454,2.15722 c 6.824395,2.63855 13.351714,4.11578 18.329455,4.14823 3.584531,0.0234 3.75,0.17273 3.75,3.38488 0,1.84823 0.286166,5.44823 0.635924,8 L 96.271848,190 92.385924,189.90975 C 90.248666,189.86011 85.35,189.22427 81.5,188.49677 Z M 63.151224,164.37863 c 1.291827,-1.99175 3.305039,-5.34799 4.473805,-7.4583 1.168766,-2.11032 2.373085,-3.58888 2.676264,-3.2857 0.303179,0.30318 1.261442,-0.82216 2.129474,-2.50075 0.868032,-1.67859 2.588714,-4.15256 3.823737,-5.49773 3.066003,-3.33942 4.022339,-4.58627 7.195731,-9.38159 3.871771,-5.85064 2.191005,-7.38197 -2.03197,-1.85131 -3.622572,4.74434 -4.207164,6.1144 -2.168265,5.08159 0.6875,-0.34825 -0.0059,0.35111 -1.540841,1.55414 -3.577039,2.80352 -7.802415,9.00111 -7.010425,10.28258 0.335656,0.5431 0.113332,0.68032 -0.494052,0.30494 -0.969291,-0.59905 -3.572517,2.65065 -3.669247,4.58045 -0.01949,0.38883 -0.750166,1.28883 -1.623725,2 C 63.483183,159.36994 59,166.46072 59,167.55716 c 0,1.54876 2.155729,-0.10185 4.151224,-3.17853 z M 134.22562,165.25 c -1.05081,-1.5125 -3.17797,-5.1125 -4.72702,-8 -1.54905,-2.8875 -3.2215,-5.25 -3.71655,-5.25 -0.92493,0 -0.61717,0.68367 2.25077,5 0.9136,1.375 2.86135,4.4125 4.32833,6.75 1.46697,2.3375 2.91648,4.25 3.22113,4.25 0.30465,0 -0.30585,-1.2375 -1.35666,-2.75 z m -10.91908,-18.32207 c -0.9936,-1.68964 -2.48154,-3.82714 -3.30654,-4.75 -0.825,-0.92286 -2.13854,-2.91543 -2.91898,-4.42793 -0.78044,-1.5125 -1.8195,-2.75 -2.30902,-2.75 -1.01373,0 -0.63018,0.74198 3.61847,7 5.34176,7.86811 8.5164,11.05041 4.91607,4.92793 z M 96.702366,117.5 C 100.96149,112.13676 109.92556,99.956468 116.5,90.599167 c 2.2,-3.131226 6.13234,-8.648313 8.73854,-12.260194 2.60619,-3.611881 4.44916,-7.035266 4.09549,-7.607523 -0.35368,-0.572257 -0.17451,-0.750893 0.39815,-0.396969 0.57267,0.353924 1.55368,0.026 2.18004,-0.728708 0.871,-1.049499 0.79385,-1.504587 -0.32807,-1.935108 -1.003,-0.384888 -3.39038,2.126187 -7.54922,7.940368 -3.34528,4.676798 -5.87635,8.836536 -5.62461,9.243863 0.25174,0.407328 -0.005,1.39411 -0.57064,2.19285 -0.81525,1.151319 -0.90044,1.060311 -0.41112,-0.43919 0.52259,-1.601446 0.38373,-1.697663 -0.90567,-0.627555 C 115.6853,86.67614 115,88.116347 115,89.181462 c 0,1.065114 -0.36743,1.709486 -0.81652,1.431937 -0.44908,-0.277549 -1.60647,0.83266 -2.57198,2.467131 -0.9655,1.634471 -2.85254,4.155531 -4.19341,5.602355 -1.34087,1.446825 -2.26769,2.800845 -2.05959,3.008945 0.20809,0.2081 -0.93362,1.78283 -2.53714,3.49941 -1.60353,1.71658 -2.67447,3.74916 -2.37988,4.51684 0.29458,0.76769 0.11875,1.13816 -0.39074,0.82328 -0.962249,-0.5947 -7.705502,8.39768 -7.287862,9.71864 0.130417,0.4125 -0.198755,0.75 -0.731493,0.75 -0.532739,0 -0.690692,0.72426 -0.351008,1.60946 0.544797,1.41972 0.736793,1.39025 1.628599,-0.25 0.556046,-1.0227 2.083071,-3.20946 3.39339,-4.85946 z m -0.320809,-11.05194 c 0.341496,-0.88992 0.173849,-1.29132 -0.393011,-0.94098 -0.889711,0.54987 -1.420412,-0.77193 -1.106967,-2.75708 C 94.946711,102.3375 94.55,102 94,102 c -0.55,0 -1,-0.49337 -1,-1.09637 0,-1.877144 -7.433424,-12.860984 -8.718615,-12.882874 -0.675391,-0.0115 -0.962027,0.647902 -0.643011,1.479244 0.316582,0.825 0.928675,1.5 1.360207,1.5 0.431532,0 1.047527,1.047572 1.368878,2.327937 0.321351,1.280366 1.607635,3.458125 2.858408,4.839464 1.250773,1.38134 3.132495,4.158769 4.181604,6.172059 2.183397,4.19006 2.177076,4.18558 2.974086,2.1086 z M 83.872445,85.263662 c -0.754845,-0.954985 -2.169502,-2.417485 -3.143684,-3.25 -0.974181,-0.832514 -1.981363,-2.632715 -2.238183,-4.000447 -0.256819,-1.367732 -1.481169,-3.251816 -2.720777,-4.186854 -1.239608,-0.935038 -2.257425,-2.515985 -2.261817,-3.513215 -0.0044,-0.99723 -0.51775,-1.718224 -1.140797,-1.602208 -0.623046,0.116015 -1.478603,-1.233985 -1.901236,-3 C 69.821347,63.017398 69.6317,62.850507 69.289012,64.675219 68.835737,67.088772 73.349026,75 75.179211,75 c 0.634767,0 0.852544,0.301578 0.483948,0.670174 -0.792636,0.792637 1.571294,4.728324 5.153385,8.579826 2.789249,2.99903 5.277605,3.824434 3.055901,1.013662 z M 136.364,63.196249 c 1.4498,-2.092062 2.636,-4.342062 2.636,-5 C 139,57.538312 139.47172,57 140.04827,57 c 0.57655,0 1.68394,-1.4625 2.46086,-3.25 0.77692,-1.7875 1.43188,-2.8 1.45547,-2.25 0.0236,0.55 0.93637,-0.465436 2.02841,-2.256525 1.09204,-1.791089 1.95192,-3.540778 1.91085,-3.888197 -0.0411,-0.347419 0.30125,-0.906983 0.76073,-1.243475 0.45948,-0.336491 1.71018,-1.643668 2.77934,-2.904837 1.51627,-1.788572 1.59454,-2.158958 0.35575,-1.683591 -2.22124,0.852371 -18.96284,23.403616 -18.2412,24.571245 0.3246,0.525213 0.0505,0.831284 -0.60915,0.680157 -0.65963,-0.151128 -1.40558,0.287723 -1.65766,0.975223 -1.03475,2.822048 2.62315,0.980414 5.07233,-2.553751 z M 66.960131,60.451961 C 66.29737,59.653382 65.290466,59 64.722568,59 c -0.567899,0 -0.287799,0.822933 0.622444,1.828741 0.910244,1.005807 1.707189,2.468307 1.770989,3.25 0.06956,0.852225 0.302805,0.701373 0.582576,-0.37678 0.256616,-0.988922 -0.07569,-2.451422 -0.738446,-3.25 z M 65.5,57 c -0.339919,-0.55 -1.293034,-1 -2.118034,-1 -0.825,0 -1.221885,0.45 -0.881966,1 0.339919,0.55 1.293034,1 2.118034,1 0.825,0 1.221885,-0.45 0.881966,-1 z m -2.149034,-3.52778 c -0.573753,-1.495176 -4.197155,-3.959365 -4.854851,-3.301668 -0.887964,0.887964 2.131006,3.634086 5.2225,4.750501 0.120239,0.04342 -0.0452,-0.608554 -0.367649,-1.448833 z m -4.777965,-5.993691 c -1.05985,-0.801825 -2.171818,-1.213046 -2.47104,-0.913824 -0.627692,0.627692 1.912097,2.412683 3.398039,2.388179 0.55,-0.0091 0.13285,-0.67253 -0.926999,-1.474355 z M 56.029806,43.055694 C 54.908024,40.959624 53,39.420858 53,40.612242 53,41.383525 56.04151,45 56.690171,45 c 0.209108,0 -0.08806,-0.874938 -0.660365,-1.944306 z M 51.021533,36.030241 C 47.932266,31.691765 46.654296,31.299756 49.097052,35.439917 50.252327,37.397963 51.633745,39 52.16687,39 c 0.533125,0 0.01772,-1.336392 -1.145337,-2.969759 z M 155.12854,35.75 c 1.08712,-2.040222 1.04378,-2.122041 -0.46482,-0.877555 -0.91505,0.754844 -1.66372,1.767344 -1.66372,2.25 0,1.527484 0.88863,0.954513 2.12854,-1.372445 z m 9.41523,-13.67918 c -0.98324,-1.590907 -2.5669,-0.294659 -1.86731,1.528422 0.38476,1.002666 0.92908,1.195221 1.56919,0.555108 0.53905,-0.539047 0.6732,-1.476635 0.29812,-2.08353 z m -57.87653,141.86449 c -1.9523,-2.7873 -0.98389,-5.81773 2.10703,-6.5935 3.14694,-0.78984 5.62282,0.66864 6.05249,3.56536 0.70957,4.78365 -5.3538,7.03387 -8.15952,3.02814 z m -21.630074,-3.86586 c -1.469047,-2.74494 1.287341,-5.50133 4.03228,-4.03228 2.200653,1.17775 2.48192,3.01146 0.730554,4.76283 -1.751366,1.75137 -3.58508,1.4701 -4.762834,-0.73055 z M 31.00499,157.25 C 26.21289,151.52808 18.248651,134.44012 16.526254,126.18462 14.266232,115.35228 13.867239,116 22.799924,116 h 7.799923 l 1.280409,6.19913 c 1.577411,7.63706 5.923456,17.39686 10.719627,24.07278 l 3.618924,5.03728 -5.359403,4.80211 c -2.947672,2.64116 -5.664142,4.82159 -6.0366,4.84541 -0.372458,0.0238 -2.090474,-1.64421 -3.817814,-3.70671 z m 124.11362,-3.03622 -5.38139,-4.76415 3.82808,-5.97482 c 4.13315,-6.45095 9.39966,-20.2721 9.42132,-24.72481 L 163,116 h 8 8 v 2.7899 c 0,3.45658 -2.16666,11.90779 -4.98188,19.43211 -2.1809,5.82899 -11.36285,20.7868 -12.74793,20.76696 -0.4236,-0.006 -3.19182,-2.1549 -6.15158,-4.77519 z m 56.11058,0.61541 c -1.29398,-1.29398 -1.84514,-36.06046 -0.6222,-39.2474 0.49408,-1.28757 2.36012,-1.58179 10.03212,-1.58179 10.57367,0 14.88331,1.30611 18.19299,5.51368 2.60197,3.30787 2.86402,9.23949 0.60148,13.61476 C 237.30567,137.24336 232.56041,139 223.57256,139 h -7.49168 l -0.29044,8.23894 c -0.22638,6.42169 -0.62588,8.30296 -1.81125,8.52919 -0.83645,0.15963 -2.07395,-0.26289 -2.75,-0.93894 z m 21.5483,-22.38589 c 3.07386,-2.15302 3.09292,-8.55448 0.034,-11.40434 C 231.02269,119.37249 229.28719,119 223.31144,119 H 216 v 7.5 7.5 h 7.27749 c 4.96824,0 7.98273,-0.49397 9.5,-1.5567 z m 19.88918,22.89003 C 252.3,154.96667 252,147.99167 252,139.83333 V 125 h 2.5 2.5 v 14.89301 c 0,12.65799 -0.23738,14.9841 -1.58179,15.5 -1.95858,0.75158 -1.93988,0.75199 -2.75154,-0.0597 z m 16.58333,0.004 c -2.61869,-1.05666 -0.97659,-4.41053 7.31997,-14.95045 L 285.13994,129.5 277.06997,129.20956 C 269.821,128.94866 269,128.71976 269,126.95956 269,125.12708 269.74578,125 280.5,125 c 10.98898,0 11.5,0.0926 11.5,2.08464 0,1.14656 -3.6,6.73347 -8,12.41536 -4.4,5.68189 -8,10.5938 -8,10.91536 0,0.32155 3.77686,0.58464 8.39301,0.58464 6.20814,0 8.53068,0.35876 8.92186,1.37814 1.08642,2.83117 -1.6524,3.62233 -12.26487,3.54291 -5.8025,-0.0434 -11.1125,-0.30592 -11.8,-0.58333 z m 34,0 c -2.60538,-1.05129 -0.98819,-4.33755 7.34287,-14.92134 L 319.18574,129.5 311.09287,129.20956 C 303.82115,128.94859 303,128.72029 303,126.95956 303,125.12708 303.74578,125 314.5,125 c 10.98898,0 11.5,0.0926 11.5,2.08464 0,1.14656 -3.6,6.73347 -8,12.41536 -4.4,5.68189 -8,10.5938 -8,10.91536 0,0.32155 3.79844,0.58464 8.44098,0.58464 8.59513,0 10.7278,0.88678 8.52267,3.5438 -0.9277,1.1178 -3.67821,1.43785 -11.83609,1.37725 -5.84516,-0.0434 -11.19006,-0.30592 -11.87756,-0.58333 z m 37.02684,-1.31044 c -5.66707,-3.45535 -5.5485,-10.80073 0.22866,-14.16587 1.64697,-0.95935 5.86659,-2.20522 9.37693,-2.7686 3.51033,-0.56338 6.58873,-1.23064 6.84088,-1.48279 0.25216,-0.25215 -0.14849,-1.73006 -0.89033,-3.28424 -1.15731,-2.42464 -2.01606,-2.86881 -6.04925,-3.12887 -3.8536,-0.24848 -4.93148,0.0668 -5.98265,1.75 -1.51368,2.4238 -5.80108,2.79898 -5.80108,0.50764 0,-2.51348 4.50252,-6.2706 8.38827,-6.99957 5.57912,-1.04665 10.17873,0.24172 13.05145,3.65575 2.43092,2.88899 2.56028,3.63973 2.56028,14.85901 0,9.87889 -0.26074,11.91634 -1.59024,12.42652 C 358.4371,156.15323 357,155.33535 357,153.45568 c 0,-1.12114 -0.69531,-1.00234 -3.25,0.55528 -4.13512,2.52123 -9.35453,2.52755 -13.47316,0.0163 z M 354.75,148.31252 c 0.6875,-0.93213 1.25,-2.47197 1.25,-3.42186 0,-0.9499 0.28531,-2.47059 0.63403,-3.37933 0.54625,-1.42351 0.0963,-1.56161 -3.25,-0.99758 -9.41652,1.58718 -13.2269,4.1262 -11.79443,7.85915 1.41702,3.69269 10.42276,3.65137 13.1604,-0.0604 z M 48.642033,143.81955 C 46.72466,142.74653 46.469816,138.93018 48.2,137.2 c 2.959215,-2.95921 7.475744,-0.0285 6.422606,4.16752 -0.673414,2.6831 -3.498179,3.84124 -5.980573,2.45203 z m 89.729557,-5.47514 c -0.49098,-1.95622 -0.1823,-3.00966 1.17208,-4 C 140.55489,133.60498 141.66024,133 142,133 c 0.33976,0 1.44511,0.60498 2.45633,1.34441 1.35438,0.99034 1.66306,2.04378 1.17208,4 C 145.09472,140.47079 144.37164,141 142,141 c -2.37164,0 -3.09472,-0.52921 -3.62841,-2.65559 z M 47.046163,122.55562 c -2.700693,-3.25413 1.768721,-7.16931 4.764428,-4.1736 1.273547,1.27355 1.403968,2.05494 0.565275,3.38674 -1.460159,2.31867 -3.774811,2.66039 -5.329703,0.78686 z m 95.525267,-0.12705 c -1.85909,-1.85909 -1.87504,-1.99275 -0.53625,-4.49431 1.16668,-2.17996 3.96296,-2.53612 5.76482,-0.73426 1.80186,1.80186 1.4457,4.59814 -0.73426,5.76482 -2.50156,1.33879 -2.63522,1.32284 -4.49431,-0.53625 z m -22.9123,-0.87447 c -1.0447,-2.72247 0.40434,-4.68456 3.21862,-4.3582 2.04931,0.23766 2.62225,0.85033 2.62225,2.8041 0,1.95377 -0.57294,2.56644 -2.62225,2.8041 -1.66109,0.19263 -2.84085,-0.26555 -3.21862,-1.25 z M 72,119.07332 C 72,117.64223 72.642225,117 74.073324,117 c 1.431099,0 1.969616,0.53852 1.738517,1.73852 C 75.309829,121.34525 72,121.63597 72,119.07332 Z m 179.38733,-1.50635 c -1.07354,-2.79759 0.40152,-4.72389 3.35698,-4.38394 2.18821,0.2517 2.75569,0.8318 2.75569,2.81697 0,1.98517 -0.56748,2.56527 -2.75569,2.81697 -1.79706,0.20671 -2.96486,-0.22813 -3.35698,-1.25 z M 171.75,108.20794 164,107.91587 l -0.0174,-3.20793 c -0.0459,-8.472964 -4.22568,-20.880323 -11.72619,-34.807978 -0.17773,-0.330021 2.2001,-2.755712 5.28407,-5.390425 6.44976,-5.510206 6.1876,-5.597865 11.93431,3.990463 4.73884,7.906704 8.34475,19.598276 9.50586,30.821241 0.51729,4.999979 0.84576,9.110649 0.72992,9.134819 -0.11584,0.0242 -3.69811,-0.0875 -7.96061,-0.24812 z M 15,102.15996 C 15,91.011641 20.774688,73.920638 28.307079,62.775785 30.063186,60.177468 31.95,58.05945 32.5,58.06908 c 0.55,0.0096 3.331353,2.135526 6.180785,4.724214 L 43.861569,67.5 39.901976,73.978917 C 35.355578,81.417998 31.542062,92.698615 30.513707,101.75 L 29.803626,108 H 22.401813 15 Z m 130.49447,1.83109 c -0.34296,-0.55492 -0.33089,-1.93108 0.0268,-3.05814 1.03848,-3.271946 5.88375,-2.258202 6.29513,1.31709 0.28312,2.46054 -1.3e-4,2.75 -2.69098,2.75 -1.65407,0 -3.28801,-0.45403 -3.63097,-1.00895 z m -75.827803,-1.65772 c -1.328619,-1.32862 -0.622752,-4.286465 1.263887,-5.296164 2.308683,-1.235569 5.529494,1.321585 4.626956,3.673564 C 75.25088,101.50979 75,102.35177 75,102.58179 c 0,0.68748 -4.612257,0.47262 -5.333333,-0.24846 z m 50.642803,-0.96925 C 119.48222,99.208303 121.2587,96.5 123.5,96.5 c 2.2413,0 4.01778,2.708303 3.19053,4.86408 -0.8209,2.13924 -5.56016,2.13924 -6.38106,0 z m -71.642803,-1.03075 c -1.188373,-1.188369 -0.705743,-5.05601 0.785345,-6.293504 3.269452,-2.713404 8.221566,2.23871 5.508162,5.508162 -1.237494,1.491092 -5.105135,1.973722 -6.293507,0.785342 z M 188.44625,99.720526 c -0.27004,-0.70371 -0.36842,-10.04121 -0.21861,-20.75 L 188.5,59.5 l 7,-0.32666 c 9.24362,-0.431359 16.59682,1.236366 19.61459,4.448637 1.92061,2.044393 2.38541,3.617422 2.38541,8.072945 0,5.171773 -0.25045,5.750289 -3.8283,8.843096 l -3.82829,3.309301 4.53323,7.821399 c 2.49329,4.301769 4.15132,8.203323 3.68452,8.670122 -2.02162,2.02162 -4.76655,-0.344893 -9.38804,-8.093823 L 203.75577,84 H 198.87788 194 v 6.918213 c 0,3.805016 -0.27314,7.630016 -0.60699,8.5 -0.727,1.894527 -4.25308,2.110017 -4.94676,0.302313 z M 210,77 c 2.62989,-2.629889 2.64336,-8.107795 0.0258,-10.476689 -1.347,-1.219021 -4.20641,-1.946376 -9,-2.289355 L 194,63.731265 V 71.365633 79 h 7 c 5.66667,0 7.38095,-0.380952 9,-2 z m 25.0964,22.791781 C 230.71307,97.436024 228.61991,93.449724 228.24265,86.739229 227.63711,75.968194 232.74098,69.615385 242,69.615385 c 5.87025,0 9.60632,2.274168 12.24845,7.4557 3.17095,6.218617 1.79426,16.661256 -2.76063,20.940353 -3.02575,2.842552 -12.50022,3.871612 -16.39142,1.780343 z m 10.21934,-3.955124 c 3.69012,-1.965371 4.6194,-4.089021 4.65246,-10.632112 0.0272,-5.37462 -0.32723,-6.65448 -2.42275,-8.75 C 245.99822,74.907308 243.94837,74 242,74 c -1.94837,0 -3.99822,0.907308 -5.54545,2.454545 C 234.38401,78.525076 234,79.86519 234,85.020287 c 0,6.858191 1.11031,9.681384 4.31537,10.972733 3.03316,1.22209 4.4726,1.189938 7.00037,-0.156363 z m 26.19794,2.995443 c -7.56998,-5.954546 -7.33278,-23.360179 0.37116,-27.235811 8.65106,-4.352096 19.51604,-0.932489 20.33598,6.400476 0.43461,3.88677 -3.64271,4.021858 -5.6261,0.186402 -2.53969,-4.911217 -8.15765,-5.71115 -12.14017,-1.728622 C 272.35709,78.551998 272,79.845222 272,85.343761 c 0,8.097011 1.82978,10.792676 7.43373,10.951526 3.19458,0.09055 4.32862,-0.445883 6.53842,-3.092866 4.05999,-4.863207 8.06531,-4.061338 6.05993,1.213203 -2.37813,6.254956 -14.7859,8.925666 -20.5184,4.416476 z m 33.15299,1.50123 C 304.3,99.966667 304,90.516667 304,79.333333 V 59 h 2.5 2.5 v 10.5 c 0,5.775 0.27161,10.5 0.60358,10.5 0.33197,0 3.29632,-2.25 6.58744,-5 3.65534,-3.05433 6.95121,-5 8.46975,-5 3.87026,0 2.56011,2.240963 -4.85188,8.298974 l -6.69111,5.468817 7.93484,7.72175 c 4.36415,4.246963 7.68609,8.12421 7.38209,8.616109 -1.3962,2.25909 -5.11705,0.42335 -11.362,-5.60565 C 313.36965,90.925 310.0384,88 309.66994,88 309.30147,88 309,90.925 309,94.5 c 0,5.63636 -0.24359,6.5 -1.83333,6.5 -1.00834,0 -2.13334,-0.3 -2.5,-0.66667 z m 60.10847,-0.835965 C 362.37178,98.143566 360,95.197374 360,93.565741 360,92.228024 364.39415,93.16488 366.72713,95 c 1.39851,1.10007 4.05678,2 5.90773,2 C 375.87529,97 380,94.212754 380,92.023053 c 0,-1.542807 -4.00997,-3.678672 -10.20337,-5.434711 -8.46767,-2.400874 -11.08185,-7.413432 -6.74301,-12.929377 3.99851,-5.083282 14.2032,-5.402141 19.01131,-0.594032 3.89383,3.893823 0.7388,6.499042 -3.67039,3.030774 C 375.46588,73.792021 370.08109,73.318906 368.2,75.2 c -0.66,0.66 -1.2,2.215945 -1.2,3.457655 0,1.931819 1.01898,2.561119 7.0603,4.360305 3.88317,1.156457 7.93317,2.975512 9,4.042345 2.82073,2.820726 2.53945,8.027632 -0.59261,10.970045 -3.22639,3.03104 -13.41605,3.87594 -17.69255,1.467015 z M 41.571429,88.428571 C 40.707143,87.564286 40,86.214286 40,85.428571 40,83.797633 43.49782,80 45,80 c 1.50218,0 5,3.797633 5,5.428571 C 50,87.443096 47.203386,90 45,90 43.978571,90 42.435714,89.292857 41.571429,88.428571 Z m 63.137421,-2.053055 c -1.23854,-1.238534 -0.76346,-5.140581 0.69395,-5.699844 2.06715,-0.793238 4.87115,1.660527 4.44572,3.890425 -0.3692,1.935184 -3.80451,3.144582 -5.13967,1.809419 z m 37.67519,-1.817103 C 141.21023,81.499506 142.44733,79.5 145.5137,79.5 c 2.63821,0 3.02283,0.378822 3.29966,3.25 0.29254,3.034058 0.10773,3.25 -2.78139,3.25 -1.77266,0 -3.33106,-0.61585 -3.64793,-1.441587 z M 338,64.696167 c 0,-0.717108 1.54264,-2.799015 3.42808,-4.626459 2.86372,-2.775631 3.89264,-3.203837 6.25,-2.601064 L 350.5,58.190205 346,62.092397 c -4.50934,3.910293 -8,5.046402 -8,2.60377 z M 106.03518,63.065741 c -1.40639,-2.627879 -1.30648,-3.651583 0.53625,-5.494312 4.0032,-4.003204 10.14966,0.344161 7.49627,5.302078 -1.49398,2.791523 -6.57632,2.913154 -8.03252,0.192234 z M 77.582389,62.683903 c -3.563683,-2.605829 0.430639,-8.424976 4.167611,-6.071605 2.385108,1.50203 2.677612,3.817233 0.72852,5.766324 -1.963628,1.963629 -2.575989,2.00181 -4.896131,0.305281 z"
         id="path169" />
      <path
         style="fill:#d17c45"
         d="M 86,188.90963 C 71.579224,187.05322 57.990754,181.21825 45.456486,171.5 l -6.448833,-5 5.246174,-4.71817 c 2.885395,-2.595 5.653697,-4.7325 6.151782,-4.75 0.498085,-0.0175 2.32177,1.04833 4.052632,2.36852 l 3.147024,2.40035 12.122015,-16.65035 c 6.667108,-9.15769 14.641468,-20.08304 17.720799,-24.27856 L 93.046864,113.24358 74.937561,84.871792 C 64.977445,69.267306 56.641726,56.312326 56.413742,56.082946 56.185758,55.853567 54.264639,57.059845 52.144587,58.763565 L 48.289949,61.861237 42.617961,57.180619 36.945973,52.5 42.609896,47.165964 48.27382,41.831927 45.961126,37.665964 c -1.271982,-2.29128 -3.471092,-5.917808 -4.88691,-8.058951 -4.406218,-6.663523 -5.044285,-8.025293 -5.059474,-10.797996 -0.0297,-5.421937 5.303117,-4.701881 7.682695,1.037345 C 44.970876,22.917725 54.624345,37 55.456342,37 55.603207,37 58.781084,35.613566 62.518291,33.919035 70.214412,30.429447 82.675982,27 87.659963,27 H 91 v 7.5 C 91,41.039883 90.770865,42 89.210099,42 84.118624,42 65,48.480152 65,50.205879 65,51.860459 86.881738,83.740641 88.42347,84.332259 89.290562,84.664993 90,85.856747 90,86.980601 c 0,1.123853 2.103166,5.206239 4.673702,9.071968 3.751961,5.642431 4.914623,6.774071 5.895288,5.738011 0.67188,-0.70982 5.76267,-7.551754 11.31287,-15.204299 7.57716,-10.447278 9.82636,-14.232925 9.02795,-15.194958 -0.58484,-0.704681 -0.91629,-2.318508 -0.73657,-3.586281 0.26582,-1.875163 0.9584,-2.315251 3.71364,-2.359784 2.96568,-0.04793 3.895,-0.775529 7.47264,-5.850619 3.99145,-5.662095 4.04022,-5.830891 2.11312,-7.312804 -6.04122,-4.645598 -22.69485,-10.234802 -30.5918,-10.267054 -3.401687,-0.01389 -3.6564,-0.240112 -4.238992,-3.764781 -0.34091,-2.0625 -0.624789,-5.568475 -0.630842,-7.791056 L 98,26.417887 l 8.25,0.734379 c 12.2155,1.087372 26.33133,5.930631 34.90437,11.975982 1.4599,1.029463 3.1295,1.871752 3.71021,1.871752 1.12417,0 12.27615,-13.682802 15.65116,-19.203023 2.57046,-4.204293 6.16037,-4.935649 7.03921,-1.434068 0.85555,3.408777 -0.25598,6.57663 -3.55686,10.137091 -1.52971,1.65 -4.77745,6.15 -7.2172,10 l -4.43591,7 3.33796,3.406215 c 1.83588,1.873418 3.22076,3.508848 3.07751,3.634288 -10.29076,9.011441 -11.0793,9.480913 -13.00197,7.740927 -1.25671,-1.137312 -2.10913,-1.344139 -2.56953,-0.623457 -0.37892,0.593146 -8.66609,12.275252 -18.41593,25.960237 -9.74985,13.68498 -17.82543,25.27638 -17.94575,25.75867 -0.12032,0.48228 6.70835,11.56413 15.17481,24.62633 l 15.39358,23.74946 3.55217,-3.36766 c 1.95369,-1.85221 3.77717,-3.36757 4.05217,-3.36745 0.275,1.2e-4 3.06431,2.19533 6.19846,4.87825 l 5.69845,4.87804 -4.69845,3.92485 c -14.61266,12.20666 -32.75009,20.21342 -45.94846,20.28394 -3.17407,0.017 -3.25,-0.0849 -3.25,-4.35764 0,-2.40625 -0.2677,-5.71351 -0.59489,-7.34947 -0.58855,-2.94272 -0.5388,-2.98111 4.66056,-3.5969 5.16339,-0.61153 16.08682,-3.85607 18.82996,-5.59298 2.04527,-1.29503 -14.04442,-26.82454 -17.18762,-27.2716 C 106.99112,140.56985 106.5,139.83272 106.5,137.5 c 0,-1.71497 -1.53673,-5.44546 -3.58761,-8.70909 l -3.587603,-5.70909 -11.412394,15.98948 c -6.276816,8.79422 -13.53553,18.78326 -16.130476,22.19787 l -4.718083,6.20839 2.324487,1.21792 C 73.407124,170.80114 86.277029,174 90.729901,174 H 95 v 8 c 0,5.80096 -0.3436,7.96514 -1.25,7.8732 -0.6875,-0.0697 -4.175,-0.50335 -7.75,-0.96357 z m 50,-20.97958 c 0,-0.99378 -5.03787,-9.21825 -16.45751,-26.86737 -5.47186,-8.45679 -6.93018,-10.1213 -7.68533,-8.77192 -0.98185,1.75446 1.46766,6.70924 3.31687,6.70924 0.5192,0 0.66392,0.45318 0.3216,1.00706 -0.34231,0.55389 0.0811,1.27703 0.94099,1.60699 0.85986,0.32996 1.56338,1.10541 1.56338,1.72322 0,1.55983 6.7472,12.46976 10.17191,16.44753 1.55545,1.80663 2.82809,3.74699 2.82809,4.31189 0,1.56695 3.39896,5.75867 4.25,5.24126 0.4125,-0.25079 0.75,-0.88435 0.75,-1.4079 z M 66.306175,160.75 C 77.588808,145.65341 86,133.51993 86,132.34087 c 0,-0.67256 -0.379336,-1.45728 -0.842968,-1.74382 -0.959986,-0.5933 -25.10427,32.48518 -25.881995,35.45921 -1.009673,3.86099 1.718762,1.8019 7.031138,-5.30626 z M 116.75608,91.076364 C 143.24289,54.382757 159.93808,30 158.57587,30 157.54903,30 137.27993,56.86407 114.55923,88.338355 97.95027,111.34623 91.047631,121.67414 91.501208,122.83836 c 0.84026,2.15672 0.08981,3.10053 25.254872,-31.761996 z m -10.78247,28.874326 c -1.41449,-2.643 -2.67494,-3.17138 -3.35261,-1.40541 -0.88393,2.30349 1.47939,5.61629 3.06678,4.29887 0.89565,-0.74332 0.97993,-1.59652 0.28583,-2.89346 z M 96.628924,107.52463 C 97.626301,104.9255 46.088891,26 43.394318,26 c -1.770386,0 41.922994,70.294337 47.955501,77.15128 0.799007,0.9082 1.752489,2.5957 2.118848,3.75 0.77383,2.43812 2.344945,2.74802 3.160257,0.62335 z M 164.52392,23.924639 c 0.36228,-1.141448 0.35581,-2.37824 -0.0144,-2.748427 -0.87334,-0.873331 -3.61063,2.851223 -2.9185,3.97111 0.91651,1.482941 2.25067,0.926743 2.93287,-1.222683 z M 40.967521,19.939312 C 40.016277,18.161897 38,17.228627 38,18.565741 c 0,1.574071 2.222687,4.414665 3.052878,3.901579 0.594952,-0.367701 0.562909,-1.316711 -0.08536,-2.528008 z M 106.66724,163.93531 c -1.9523,-2.7873 -0.98389,-5.81773 2.10703,-6.5935 3.14694,-0.78984 5.62282,0.66864 6.05249,3.56536 0.70957,4.78365 -5.3538,7.03387 -8.15952,3.02814 z M 85.170311,160.25 c -1.295942,-2.51973 -0.357105,-4.25 2.306034,-4.25 2.688214,0 4.067845,2.63936 2.418463,4.62675 -1.566063,1.88699 -3.6455,1.72117 -4.724497,-0.37675 z M 30.557672,156.29134 C 23.309892,146.43077 17.651614,132.85385 15.537186,120.25 L 14.824204,116 h 7.859099 7.859098 l 1.133186,5.96281 c 1.365688,7.18622 6.615925,18.93311 11.084421,24.80029 l 3.260008,4.28043 -3.537222,3.10572 c -1.945472,1.70815 -4.632103,3.96696 -5.970292,5.01958 l -2.43307,1.91385 z m 125.864998,-1.3052 c -2.70747,-2.31412 -5.28734,-4.54486 -5.73306,-4.9572 -0.44571,-0.41235 0.57802,-2.80695 2.27496,-5.32134 4.28554,-6.34997 8.02342,-15.10931 9.47666,-22.2076 l 1.22838,-6 7.66519,-0.29206 c 8.77087,-0.3342 8.47807,-0.76679 6.28946,9.29206 -2.19891,10.10621 -8.09923,22.84957 -14.52218,31.36467 l -1.75673,2.32895 z m 185.96545,0.0338 C 339.76291,153.95923 336,149.28673 336,147.08765 c 0,-4.76384 6.02159,-8.78925 14.77622,-9.87785 4.67832,-0.58173 5.77634,-1.07818 6.01152,-2.71802 0.43585,-3.039 -1.89064,-5.47194 -5.84634,-6.11386 -2.89718,-0.47015 -4.14375,-0.0785 -6.76149,2.12415 -3.71986,3.13006 -6.96086,2.82567 -5.18785,-0.48723 2.65277,-4.95675 10.35824,-7.14879 16.34151,-4.64882 5.31597,2.22115 6.66643,6.09074 6.66643,19.10186 V 155 h -2.5 c -1.55699,0 -2.5,-0.56654 -2.5,-1.50194 0,-1.24668 -0.63481,-1.16171 -3.73519,0.5 -3.93981,2.11161 -7.37975,2.43479 -10.87669,1.02187 z m 9.62314,-4.52575 c 1.9862,-1.0271 3.29301,-2.77769 4.11056,-5.50645 0.65924,-2.20034 0.94557,-4.25367 0.63629,-4.56295 -1.02107,-1.02107 -12.05807,1.53671 -13.92619,3.22733 -2.46306,2.22904 -2.30945,4.90001 0.39059,6.79119 2.78962,1.95392 5.08299,1.9672 8.78875,0.0509 z M 211,134.5 V 114 l 8.75,0.006 c 14.50095,0.009 19.87349,2.76846 20.94497,10.75688 C 241.94929,134.11419 235.87007,139 222.97976,139 H 216 v 8 c 0,7.86667 -0.0417,8 -2.5,8 H 211 Z m 22.25698,-2.31254 C 234.50495,130.9395 235.2,128.87365 235.2,126.41241 235.2,120.65404 232.56449,119 223.38922,119 H 216 v 8.14434 8.14434 l 7.65698,-0.5791 c 5.70981,-0.43183 8.15109,-1.07321 9.6,-2.52212 z M 252,140 v -15 h 2.5 2.5 v 15 15 h -2.5 -2.5 z m 16.01049,13.25 c 0.006,-0.9625 3.83077,-6.57195 8.5,-12.46545 4.66923,-5.8935 8.48951,-10.956 8.48951,-11.25 0,-0.294 -3.6,-0.53455 -8,-0.53455 -7.33333,0 -8,-0.16667 -8,-2 0,-1.88406 0.66667,-2 11.5,-2 10.61007,0 11.5,0.14625 11.5,1.88992 0,1.03946 -3.84661,6.88946 -8.54801,13 L 274.90397,151 h 9.04802 c 8.38134,0 9.04801,0.14736 9.04801,2 0,1.89333 -0.66667,2 -12.5,2 -11.24209,0 -12.49894,-0.17611 -12.48951,-1.75 z m 34,0 c 0.006,-0.9625 3.83077,-6.57195 8.5,-12.46545 4.66923,-5.8935 8.48951,-10.956 8.48951,-11.25 0,-0.294 -3.6,-0.53455 -8,-0.53455 -7.33333,0 -8,-0.16667 -8,-2 0,-1.88406 0.66667,-2 11.5,-2 10.61007,0 11.5,0.14625 11.5,1.88992 0,1.03946 -3.84661,6.88946 -8.54801,13 L 308.90397,151 h 9.04802 c 8.38134,0 9.04801,0.14736 9.04801,2 0,1.89333 -0.66667,2 -12.5,2 -11.24209,0 -12.49894,-0.17611 -12.48951,-1.75 z M 47.666667,143.33333 C 46.58012,142.24679 46.906492,138.49351 48.2,137.2 c 3.013707,-3.01371 7.474211,-0.0224 6.392615,4.28701 -0.486728,1.93928 -1.273212,2.51299 -3.445,2.51299 -1.547855,0 -3.114282,-0.3 -3.480948,-0.66667 z m 91.373163,-3.78534 c -1.45069,-1.74797 -0.5567,-5.13567 1.57068,-5.95202 2.1468,-0.82381 5.38949,1.12513 5.38949,3.23921 0,3.7616 -4.60134,5.55502 -6.96017,2.71281 z M 47.046163,122.55562 c -2.700693,-3.25413 1.768721,-7.16931 4.764428,-4.1736 1.273547,1.27355 1.403968,2.05494 0.565275,3.38674 -1.460159,2.31867 -3.774811,2.66039 -5.329703,0.78686 z m 96.678017,0.3099 c -2.43902,-1.36494 -2.22554,-5.57162 0.32381,-6.38075 2.44881,-0.77722 4.95201,1.04381 4.95201,3.60249 0,2.44134 -3.02829,4.03604 -5.27582,2.77826 z M 120.36163,121.5 c -0.88341,-2.30213 0.35697,-4.5 2.5396,-4.5 2.02954,0 3.70475,3.21048 2.6043,4.99105 -0.95159,1.5397 -4.49441,1.2015 -5.1439,-0.49105 z M 72.6875,120.35417 c -1.373842,-1.37385 -0.661238,-3.49576 1.0625,-3.1638 0.9625,0.18536 1.75,0.96836 1.75,1.73999 0,1.57886 -1.764293,2.47201 -2.8125,1.42381 z m 178.80697,-2.36312 C 250.25175,115.98028 252.08666,113 254.56739,113 c 2.03623,0 2.43261,0.48883 2.43261,3 0,2.51399 -0.39545,3 -2.44098,3 -1.34254,0 -2.72159,-0.45403 -3.06455,-1.00895 z M 15,103.68366 C 15,90.954892 22.241257,70.566785 30.251523,60.742262 L 32.5,57.984523 l 5.719045,4.912233 5.719045,4.912232 -1.835666,2.345506 C 36.591646,77.19584 31.643051,90.481755 30.477588,101.36468 L 29.767006,108 H 22.383503 15 Z m 148.64625,-2.58004 c -0.77921,-8.38392 -4.4923,-19.728213 -8.64237,-26.404279 l -3.07499,-4.94662 4.20743,-3.62636 c 7.80556,-6.727562 7.31011,-6.664406 10.70889,-1.365107 C 173.90963,75.775952 179,91.438369 179,102.15996 V 108 h -7.3564 -7.3564 z m -17.97058,2.49358 c -0.79303,-2.06661 1.66013,-4.870974 3.89043,-4.44739 1.24611,0.236664 2.04644,1.34229 2.25032,3.10874 0.2819,2.44232 -0.006,2.74145 -2.64301,2.74145 -1.62769,0 -3.20167,-0.63126 -3.49774,-1.4028 z M 69.361626,101.5 c -0.863573,-2.250436 0.339688,-4.5 2.406989,-4.5 2.817544,0 4.31516,1.974948 3.149397,4.1532 -1.18855,2.22082 -4.75191,2.44323 -5.556386,0.3468 z m 51.083214,-0.6738 c -0.91213,-2.873873 1.99369,-5.197058 4.6933,-3.75227 1.02402,0.548041 1.86186,1.3938 1.86186,1.879466 0,4.251194 -5.31806,5.770554 -6.55516,1.872804 z M 49.2,99.8 c -1.872098,-1.872098 -1.415018,-4.614558 0.982996,-5.897937 1.856923,-0.993794 2.452235,-0.835809 3.985487,1.057677 C 57.314258,98.844608 52.720153,103.32015 49.2,99.8 Z m 139.50124,0.5679 C 188.31556,99.982223 188,90.741667 188,79.833333 V 60 l 10.75,0.0037 c 8.83407,0.0031 11.31086,0.34573 13.89691,1.922606 7.11693,4.339646 6.36704,17.216858 -1.16947,20.082234 l -2.41797,0.919308 4.90225,8.286057 c 4.91215,8.302796 5.227,11.068385 1.04777,9.203425 C 213.87883,99.912818 211.04001,96.125 208.70102,92 l -4.25271,-7.5 -5.68293,-0.298674 -5.68292,-0.298673 -0.29123,8.287614 c -0.22958,6.533163 -0.6191,8.350193 -1.83999,8.583243 -0.85182,0.1626 -1.86432,-0.0199 -2.25,-0.40561 z m 21.07625,-22.924604 c 1.62117,-1.135506 2.21837,-2.556 2.2072,-5.25 C 211.9582,65.804856 209.2225,64 199.56574,64 H 193 v 7.5 7.5 h 7.27749 c 4.96824,0 7.98273,-0.493966 9.5,-1.556704 z m 25.53722,22.093047 c -7.84324,-3.411258 -9.56239,-20.197231 -2.72624,-26.619458 2.95289,-2.774096 12.46421,-3.766366 16.35679,-1.706425 6.07457,3.214644 8.61023,16.062097 4.66147,23.618318 -2.91768,5.583182 -11.3118,7.743462 -18.29202,4.707565 z m 12.06996,-4.830101 c 4.15923,-4.159238 4.15422,-14.243316 -0.009,-18.844034 -2.43656,-2.692374 -8.46228,-2.481429 -11.07744,0.387792 -4.22404,4.634416 -3.66103,15.981364 0.95333,19.213388 3.17793,2.225907 7.47121,1.905125 10.13348,-0.757146 z m 24.51321,4.00913 c -7.698,-5.175893 -7.9215,-20.618635 -0.3842,-26.547472 5.04178,-3.965868 16.74177,-2.296134 19.45668,2.776709 C 293.8569,80.338173 290.43874,81.751686 286,77 c -3.37402,-3.611902 -8.4749,-4.069505 -11.71493,-1.050954 -2.46647,2.29786 -3.69665,8.340102 -2.73821,13.44907 1.53346,8.174041 11.40543,10.46239 15.01581,3.480703 C 287.41671,91.227277 288.86788,90 289.96666,90 c 2.69042,0 3.05002,1.055044 1.56413,4.588947 -2.59162,6.163653 -13.26617,8.407213 -19.63291,4.126425 z m 32.80336,1.652528 C 304.31556,99.982223 304,90.516667 304,79.333333 V 59 h 2.46725 c 2.45544,0 2.4686,0.05238 2.75,10.941337 L 309.5,80.882674 316,75.46425 c 6.12594,-5.106604 11.06336,-7.007067 10.94867,-4.21425 -0.0282,0.6875 -3.17258,3.721291 -6.98742,6.741758 l -6.93609,5.491759 8.01856,8.060433 c 4.41021,4.433238 7.70455,8.374447 7.32075,8.75824 -1.73062,1.73063 -4.51912,0.20991 -11.63043,-6.342727 l -7.64081,-7.040537 -0.29662,6.780199 c -0.22609,5.168179 -0.66483,6.850315 -1.84537,7.075105 -0.85182,0.1622 -1.86432,-0.0207 -2.25,-0.40633 z M 367,100.29377 c -2.33606,-0.853957 -6,-4.498411 -6,-5.968084 0,-1.946975 2.81624,-1.61539 5.72713,0.674314 C 371.26058,98.566013 380,96.805501 380,92.326247 c 0,-1.886368 -3.47001,-4.084278 -9,-5.700614 -6.88367,-2.011999 -7.6245,-2.507794 -8.94777,-5.988269 -1.33833,-3.520055 0.32747,-7.486628 3.94777,-9.400374 3.88331,-2.052777 12.48325,-1.071076 15.50769,1.770234 1.37077,1.287772 2.49231,2.712963 2.49231,3.16709 0,1.425399 -4.69534,0.897711 -6,-0.674314 -1.91199,-2.303808 -9.66122,-2.001539 -10.96123,0.427558 -2.01022,3.756131 -0.34062,5.189408 9.46123,8.122025 7.36785,2.204389 10.22342,6.861664 7.41951,12.100817 -1.98783,3.71429 -11.63237,6.07612 -16.91951,4.14337 z M 41.571429,88.428571 C 40.707143,87.564286 40,86.214286 40,85.428571 40,83.797633 43.49782,80 45,80 c 1.464379,0 5,3.779588 5,5.345012 C 50,87.127059 46.755319,90 44.742688,90 43.862781,90 42.435714,89.292857 41.571429,88.428571 Z m 62.817111,-2.858434 c -0.99567,-2.594671 0.39988,-4.739185 2.85699,-4.390274 C 108.89826,81.414553 109.5,82.167272 109.5,84 c 0,1.832728 -0.60174,2.585447 -2.25447,2.820137 -1.35228,0.192025 -2.49559,-0.308199 -2.85699,-1.25 z m 37.9955,-1.011724 C 141.21023,81.499506 142.44733,79.5 145.5137,79.5 c 2.63821,0 3.02283,0.378822 3.29966,3.25 0.29254,3.034058 0.10773,3.25 -2.78139,3.25 -1.77266,0 -3.33106,-0.61585 -3.64793,-1.441587 z m -35.7519,-21.673215 c -1.50179,-2.144114 -1.15918,-4.781835 0.79492,-6.119885 2.02452,-1.386276 5.50311,-0.764307 6.53776,1.168946 1.40639,2.627879 1.30648,3.651583 -0.53625,5.494312 -2.18824,2.188237 -5.043,1.959999 -6.79643,-0.543373 z M 340.24056,61.75 c 1.70051,-2.213424 3.49559,-3.349945 5.62816,-3.563358 C 347.59092,58.014294 349,58.298384 349,58.817953 349,60.408487 342.26991,65 339.93856,65 h -2.19488 z M 76.484769,60.952012 c -1.291546,-4.0693 4.320947,-6.908497 6.380749,-3.227835 C 84.234574,60.170545 82.446898,63 79.532204,63 77.994309,63 76.901733,62.265749 76.484769,60.952012 Z"
         id="path167" />
      <path
         style="fill:#f15c06"
         d="m 123.66047,160.75 c -5.10349,-7.8375 -10.12246,-15.68803 -11.15326,-17.44562 -1.0308,-1.75759 -2.26132,-2.95635 -2.7345,-2.66391 -1.47557,0.91196 -3.84936,-1.82361 -3.24226,-3.7364 0.35976,-1.13351 -0.89378,-4.12462 -3.34293,-7.97669 l -3.918539,-6.16312 -13.309039,18.36787 C 64.03485,171.39106 62.762977,173 60.768327,173 c -1.986313,0 -5.274041,-6.23975 -4.437023,-8.42098 0.25063,-0.65313 8.291983,-11.9784 17.869673,-25.16725 C 83.778666,126.22291 91.945505,114.89719 92.349508,114.2435 92.78601,113.53723 85.990106,101.90995 75.600715,85.587595 65.984876,70.480536 54.223277,51.455667 49.463829,43.310108 44.70438,35.164548 39.916084,27.531732 38.82317,26.348293 36.077702,23.375419 35.158267,16.260234 37.408018,15.396923 c 1.948539,-0.747724 5.237669,1.895797 6.202402,4.984961 0.363814,1.164964 4.762802,7.76118 9.77553,14.658258 C 58.398677,41.93722 67.9,55.764695 74.5,65.767865 c 6.6,10.00317 12.610645,18.197606 13.356989,18.209858 0.746344,0.01225 1.135993,0.598183 0.865886,1.302069 -0.270106,0.703885 2.067734,5.20835 5.195201,10.009921 l 5.686303,8.730127 11.281271,-15.626461 c 8.10017,-11.220104 10.97575,-15.931977 10.19781,-16.709921 -2.76344,-2.763434 0.52182,-8.052993 3.74057,-6.022658 1.38932,0.876361 2.87507,-0.584096 9.21487,-9.057989 4.15717,-5.556546 11.36158,-14.922868 16.00979,-20.814049 4.64822,-5.891182 9.35733,-12.186179 10.46469,-13.988883 2.53336,-4.124123 5.10659,-4.72806 6.5594,-1.539489 0.84266,1.84943 0.74179,3.24764 -0.43797,6.071204 C 165.79179,28.349218 164.69072,30 164.18798,30 c -0.50275,0 -5.81296,7.5375 -11.80048,16.75 -5.98752,9.2125 -18.86765,27.957384 -28.62253,41.655298 l -17.73613,24.905302 2.21446,3.5947 c 1.21796,1.97708 8.88787,13.9447 17.04426,26.5947 12.68915,19.67999 14.7483,23.41929 14.26518,25.90469 -0.72315,3.72028 -2.29997,5.59531 -4.70541,5.59531 -1.35369,0 -4.60282,-4.1388 -11.18686,-14.25 z m 12.33567,7.5 c -0.003,-1.31356 -20.32713,-34.71415 -22.62602,-37.18333 -0.2219,-0.23834 -0.92375,0.087 -1.55966,0.72287 -1.59607,1.59607 -0.86297,2.99255 11.5371,21.97708 10.11278,15.48267 12.65721,18.3962 12.64858,14.48338 z M 74.385741,150.20128 c 10.859251,-14.94397 12.412487,-17.55151 11.410586,-19.1558 -1.347562,-2.15779 -1.070434,-2.48279 -17.112219,20.06797 -9.169106,12.88948 -10.602633,15.63469 -9.000775,17.23655 0.909015,0.90902 0.373309,1.57029 14.702408,-18.14872 z m 14.010691,-22.52759 c -0.629401,-1.98307 -0.538612,-2.03705 1.119978,-0.66585 1.691553,1.39845 1.719413,1.35488 0.443621,-0.69391 -1.347611,-2.16413 -1.375224,-2.16617 -2.749846,-0.20362 -1.503655,2.14677 -0.885746,5.42524 0.823429,4.36892 0.578705,-0.35766 0.741125,-1.6136 0.362818,-2.80554 z M 111,129 c 0,-1.1 -0.20917,-2 -0.46482,-2 -0.25565,0 -0.94648,0.9 -1.53518,2 -0.85431,1.5963 -0.76049,2 0.46482,2 0.86851,0 1.53518,-0.86852 1.53518,-2 z m -0.2962,-29 C 138.83313,61.30269 160.69037,29.35704 159.70915,28.375812 159.06874,27.735406 140.84097,51.447803 122.33164,77 c -9.36253,12.925 -20.24227,27.94638 -24.177209,33.38085 -6.948659,9.59665 -7.910645,11.5296 -6.459987,12.98026 1.05924,1.05924 2.922749,-1.23088 19.009356,-23.36111 z m -3.97128,21.91713 c 0.32437,-1.97696 -2.37305,-5.25733 -3.66599,-4.45825 -1.43291,0.88559 -1.35193,3.85572 0.14597,5.35362 1.47296,1.47296 3.20366,1.03273 3.52002,-0.89537 z M 96.782611,107.75 C 97.53474,106.835 93.34234,99.531983 81.139363,80.5 58.027151,44.453774 41.443537,21.096766 43.462567,27.434532 45.163024,32.772291 93.29799,109 94.96813,109 c 0.432839,0 1.249356,-0.5625 1.814481,-1.25 z M 165.09315,23.281825 c 0.45037,-1.219996 0.42493,-2.461632 -0.0565,-2.759191 C 163.876,19.805329 161,22.742241 161,24.644753 c 0,2.250363 3.14598,1.202822 4.09315,-1.362928 z M 42,21.654988 C 42,20.915231 41.1,19.495486 40,18.5 c -1.949089,-1.763901 -2,-1.746633 -2,0.678346 0,1.368576 0.3,2.788321 0.666667,3.154987 C 39.828516,23.495182 42,23.053277 42,21.654988 Z M 107.75,164.9199 c -2.13847,-1.24554 -2.29001,-5.22684 -0.26299,-6.90912 1.87078,-1.55261 6.08609,-0.56565 6.92537,1.62149 0.73146,1.90613 -1.87162,6.38227 -3.68543,6.33732 -0.67482,-0.0167 -2.01445,-0.48908 -2.97695,-1.04969 z M 85.180449,158.75 c 0.209741,-1.47682 1.006825,-2.25 2.319551,-2.25 1.312726,0 2.10981,0.77318 2.319551,2.25 0.262128,1.84568 -0.154689,2.25 -2.319551,2.25 -2.164862,0 -2.581679,-0.40432 -2.319551,-2.25 z m 258.193821,-3.44261 c -2.78234,-0.54178 -6.05325,-4.11123 -6.90223,-7.53222 C 335.14607,142.43216 344.25944,137 354.54922,137 356.49672,137 357,136.48661 357,134.5 c 0,-3.36356 -3.34068,-6.5 -6.92327,-6.5 -1.68957,0 -4.22798,1.09783 -6.01477,2.60132 -3.58345,3.01527 -6.81586,2.67588 -5.09735,-0.5352 C 340.85665,126.53081 344.19118,125 350,125 c 9.90362,0 11.98485,3.5137 11.99442,20.25 0.006,9.73482 0.002,9.75 -2.49442,9.75 -1.55556,0 -2.5,-0.56667 -2.5,-1.5 0,-1.86483 -0.8793,-1.90296 -2.92126,-0.12666 -1.7662,1.53641 -7.46178,2.56547 -10.70447,1.93405 z M 353.478,149.75 c 1.59208,-1.38334 2.82804,-3.747 3.20875,-6.13649 l 0.61923,-3.88648 -4.90299,0.68094 c -7.28812,1.0122 -10.34144,2.4986 -11.06646,5.38734 -1.37078,5.46159 7.19583,8.25189 12.14147,3.95469 z m -142.24871,-15 0.27071,-20.25 10.05891,0.10385 c 6.33955,0.0655 11.14641,0.62051 13,1.50115 3.96513,1.88381 6.67544,7.33396 6.0782,12.22262 C 239.74377,135.63992 234.20103,139 223.03212,139 H 216 v 8 c 0,7.88419 -0.0365,8 -2.52071,8 h -2.5207 z m 19.57033,-0.82999 c 5.6076,-1.95482 6.47441,-11.09744 1.31399,-13.85921 C 231.02344,119.47736 226.9519,119 223.06574,119 H 216 v 8 8 h 5.85078 c 3.21792,0 7.24491,-0.486 8.94884,-1.07999 z M 252,140 v -15 h 2.5 2.5 v 15 15 h -2.5 -2.5 z m 16,13.5766 c 0,-1.38588 2.26088,-4.58002 12.18194,-17.21045 C 282.83187,132.99254 285,129.95504 285,129.61615 285,129.27727 281.4,129 277,129 c -7.33333,0 -8,-0.16667 -8,-2 0,-1.88406 0.66667,-2 11.5,-2 10.45532,0 11.5,0.16538 11.5,1.82048 0,1.00126 -3.82049,6.73876 -8.48997,12.75 l -8.48998,10.92952 8.98998,0.28753 c 8.16833,0.26124 8.98997,0.46688 8.98997,2.25 0,1.8453 -0.74634,1.96247 -12.5,1.96247 -10.14549,0 -12.5,-0.26811 -12.5,-1.4234 z m 34.47282,0.37942 c -0.79216,-1.28175 0.86434,-3.85152 9.66367,-14.99148 C 315.91142,134.18547 319,129.98838 319,129.63766 319,129.28695 315.4,129 311,129 c -7.33333,0 -8,-0.16667 -8,-2 0,-1.88406 0.66667,-2 11.5,-2 10.45532,0 11.5,0.16538 11.5,1.82048 0,1.00126 -3.82049,6.73876 -8.48997,12.75 l -8.48998,10.92952 8.98998,0.28753 c 8.16833,0.26124 8.98997,0.46688 8.98997,2.25 0,1.8404 -0.74278,1.96247 -11.94098,1.96247 -7.2173,0 -12.19622,-0.41298 -12.5862,-1.04398 z M 48.039826,142.54799 C 46.24186,140.38157 47.707811,137 50.444943,137 c 3.299228,0 4.988021,2.32248 3.589267,4.93608 -1.283523,2.39828 -4.259685,2.70209 -5.994384,0.61191 z m 92.122684,-2.42639 c -2.05357,-1.30167 -1.0262,-5.56964 1.425,-5.91986 3.00268,-0.42901 4.85118,2.11005 3.4467,4.73434 -1.17481,2.19514 -2.69517,2.56512 -4.8717,1.18552 z M 47.571429,122.42857 C 45.560248,120.41739 46.671383,118 49.606989,118 51.464337,118 52,118.53566 52,120.39301 c 0,2.93561 -2.417391,4.04674 -4.428571,2.03556 z m 73.129811,-0.0607 c -1.2932,-1.29319 -0.71803,-4.14748 0.96598,-4.79369 2.10762,-0.80877 3.62704,0.65929 3.16508,3.05809 -0.36719,1.90665 -2.89711,2.96956 -4.13106,1.7356 z M 142.36163,121.5 c -0.9446,-2.46159 0.41434,-4.5 3,-4.5 2.78489,0 4.21112,2.60495 2.53318,4.62675 -1.5155,1.82607 -4.8128,1.75054 -5.53318,-0.12675 z m -69.915481,-1.58713 c -1.030521,-1.66742 1.287209,-3.57951 2.666719,-2.2 C 76.266792,118.86679 75.544589,121 74,121 c -0.485081,0 -1.184314,-0.48921 -1.553851,-1.08713 z M 252,115.93045 c 0,-2.61125 0.33594,-3.02184 2.25,-2.75 1.61101,0.2288 2.33986,1.10054 2.56642,3.06955 0.27245,2.36784 -0.0402,2.75 -2.25,2.75 C 252.36859,119 252,118.55916 252,115.93045 Z M 146.38854,103.57014 c -0.99567,-2.59467 0.39988,-4.739188 2.85699,-4.390277 1.65273,0.23469 2.25447,0.987407 2.25447,2.820137 0,1.83273 -0.60174,2.58545 -2.25447,2.82014 -1.35228,0.19202 -2.49559,-0.3082 -2.85699,-1.25 z M 69.993942,101.4927 c -1.106509,-1.33326 -1.063384,-1.851829 0.264419,-3.179633 2.144494,-2.144493 4.971931,-0.953065 4.561776,1.922243 -0.390706,2.73897 -3.026644,3.42572 -4.826195,1.25739 z m 51.088048,-0.3395 c -0.68002,-1.270636 -0.6286,-2.206586 0.16481,-3.000004 2.55354,-2.553539 6.34143,-0.120834 4.67121,3.000004 C 125.3744,102.16894 124.2863,103 123.5,103 c -0.7863,0 -1.8744,-0.83106 -2.41801,-1.8468 z M 49.44113,99.558569 c -1.554224,-1.154125 -1.720087,-1.801915 -0.832144,-3.25 1.460175,-2.381298 5.751925,-2.388575 6.209895,-0.01053 C 55.157226,98.054928 53.434642,101 52.068685,101 51.691151,101 50.508751,100.35136 49.44113,99.558569 Z M 235.19809,99.327186 C 230.67323,97.097209 229,93.364431 229,85.5 c 0,-7.693372 1.75444,-11.804533 5.96727,-13.983073 6.42838,-3.324244 15.64039,-1.110105 18.5158,4.45034 2.12514,4.109568 2.01358,15.383392 -0.18913,19.112283 -3.26546,5.52798 -11.55138,7.47293 -18.09585,4.247636 z m 11.50288,-3.830287 c 4.8015,-3.363107 5.42934,-14.600382 1.07472,-19.235669 -2.72636,-2.902079 -8.54113,-3.060058 -11.49062,-0.312184 -4.0858,3.8065 -4.08737,14.353359 -0.003,18.800954 2.4221,2.637372 7.2278,2.981884 10.41869,0.746899 z m 26.62451,4.099334 c -1.74599,-0.789918 -3.83036,-2.484718 -4.63193,-3.766223 -3.65424,-5.842185 -2.75939,-18.218715 1.63497,-22.613073 4.92556,-4.925565 17.65116,-3.860463 20.64184,1.727672 2.86011,5.344173 -1.12296,7.045412 -4.81224,2.055391 -1.73705,-2.349494 -2.98468,-3 -5.7538,-3 -4.78682,0 -6.98495,1.358247 -8.29914,5.128114 -2.14057,6.140468 -0.89722,13.787658 2.68413,16.508588 C 277.92741,98.02087 282.92559,97.291162 286,94 c 1.54133,-1.65 3.52188,-3 4.40121,-3 2.56015,0 1.84983,3.385306 -1.35446,6.455209 -3.56092,3.411581 -10.74913,4.390511 -15.72127,2.141024 z m 91.57933,-0.881401 C 360.98359,96.072326 359.83682,93 362.77169,93 c 1.05508,0 2.73282,0.9 3.72831,2 2.29253,2.533213 9.59516,2.761983 11.98179,0.375354 3.29437,-3.294374 1.54422,-5.704795 -5.8931,-8.116348 -3.80122,-1.232547 -7.73872,-2.989791 -8.75,-3.904988 -2.47129,-2.236491 -2.39818,-7.794531 0.13587,-10.328582 4.31699,-4.316987 13.95882,-3.960976 17.9487,0.66273 l 2.42638,2.811834 -2.25728,0.330358 c -1.24151,0.181696 -3.14256,-0.470804 -4.22456,-1.45 C 374.09152,71.962876 366,73.748961 366,78 c 0,2.497911 1.6806,3.582363 8.5,5.484836 6.35222,1.772141 10.5,5.183857 10.5,8.636669 0,7.679523 -12.43103,11.758205 -20.09519,6.593327 z M 188,80 V 60 h 10.09887 c 14.73144,0 19.0678,2.622104 19.0678,11.529901 0,5.367688 -1.38775,8.015945 -5.24609,10.01117 l -3.02014,1.561773 1.97117,3.198578 c 3.70259,6.008104 7.10428,12.197683 7.11634,12.948578 0.007,0.4125 -1.03555,0.75 -2.31596,0.75 -1.87372,0 -3.19093,-1.55801 -6.75,-7.983946 L 204.5,84.032109 198.75,84.016054 193,84 v 8 c 0,7.866667 -0.0417,8 -2.5,8 H 188 Z m 18.98827,-1.306442 c 4.53109,-1.550373 6.41541,-5.237128 4.89941,-9.585923 C 210.41077,64.870979 208.39484,64 200.06574,64 H 193 v 7.333333 c 0,4.033334 0.3,7.633334 0.66667,8 1.06758,1.067582 9.51776,0.661758 13.3216,-0.639775 z M 304.22929,79.75 c 0.26808,-20.053621 0.29221,-20.253057 2.48735,-20.565179 2.15976,-0.307092 2.22391,-0.03202 2.5,10.719319 L 309.5,80.938639 316.31701,75.46932 C 322.55918,70.461193 327,68.578715 327,70.940762 c 0,0.51742 -3.15,3.532169 -7,6.699443 -3.85,3.167274 -7,5.919281 -7,6.115569 0,0.196289 3.7125,3.913795 8.25,8.261123 7.78911,7.462663 8.09076,7.906437 5.39956,7.943668 -2.13187,0.02949 -4.71583,-1.630074 -10.25,-6.583134 L 309,86.754862 v 6.622569 C 309,99.789344 308.91982,100 306.47929,100 h -2.5207 z M 42.59616,88.693972 c -3.749767,-2.741897 0.236343,-9.542469 4.15384,-7.08673 2.463435,1.54424 2.828114,5.496862 0.65384,7.08673 C 46.421485,89.412287 45.339757,90 45,90 44.660243,90 43.578515,89.412287 42.59616,88.693972 Z m 62.41441,-3.181237 C 103.54304,83.744472 104.3553,81 106.34617,81 c 0.77492,0 1.96914,0.675 2.65383,1.5 0.99319,1.196716 0.99319,1.803284 0,3 -1.56514,1.885879 -2.43256,1.888648 -3.98943,0.01274 z m 37.45404,-1.624242 c -0.8928,-2.812949 1.61093,-5.316679 4.42388,-4.423884 C 148.40482,79.945871 149,80.961411 149,83.067388 149,85.644204 148.6442,86 146.06739,86 c -2.10598,0 -3.12152,-0.595185 -3.60278,-2.111507 z M 107.2,63.8 c -3.47769,-3.477686 1.51434,-9.941818 5.27039,-6.824577 C 115.45352,59.451203 113.74531,65 110,65 c -0.88,0 -2.14,-0.54 -2.8,-1.2 z m 233.3678,-2.3 c 1.96214,-2.572506 3.43312,-3.5 5.55089,-3.5 1.58472,0 2.88131,0.231343 2.88131,0.514096 0,1.43846 -6.80549,6.431169 -8.80089,6.456591 L 337.89822,65 Z M 77.708849,62.375516 c -1.324368,-1.324369 -0.71605,-5.158775 0.917899,-5.78578 2.216216,-0.850442 4.53553,1.27497 4.171509,3.822759 -0.295725,2.069786 -3.678054,3.374375 -5.089408,1.963021 z"
         id="path165" />
      <path
         style="fill:#6f492c"
         d="m 123.36555,160.25 c -5.25267,-8.1125 -12.83109,-19.8547 -16.84094,-26.09377 L 99.233987,122.81246 85.942445,141.15623 C 64.037168,171.38789 62.762714,173 60.768327,173 c -1.986313,0 -5.274041,-6.23975 -4.437023,-8.42098 0.25063,-0.65313 8.291983,-11.9784 17.869673,-25.16725 C 83.778666,126.22291 91.945505,114.89719 92.349508,114.2435 92.78601,113.53723 85.990106,101.90995 75.600715,85.587595 65.984876,70.480536 54.223277,51.455667 49.463829,43.310108 44.70438,35.164548 39.916084,27.531732 38.82317,26.348293 36.077702,23.375419 35.158267,16.260234 37.408018,15.396923 c 1.950235,-0.748375 5.241375,1.899224 6.196633,4.984961 0.36064,1.164964 4.588362,7.518116 9.394936,14.118116 7.592721,10.425712 24.951496,36.200049 41.58257,61.741865 l 5.040971,7.741865 9.880852,-13.741865 c 17.29941,-24.05927 28.69502,-39.38903 38.98457,-52.443351 5.5063,-6.985817 10.91747,-14.180814 12.02483,-15.988882 2.53115,-4.132785 5.10525,-4.740754 6.5594,-1.549242 0.84266,1.84943 0.74179,3.24764 -0.43797,6.071204 C 165.79179,28.349218 164.69072,30 164.18798,30 c -0.50275,0 -5.81296,7.5375 -11.80048,16.75 -5.98752,9.2125 -18.86765,27.957384 -28.62253,41.655298 l -17.73613,24.905302 2.21446,3.5947 c 1.21796,1.97708 8.88787,13.9447 17.04426,26.5947 12.68915,19.67999 14.7483,23.41929 14.26518,25.90469 -0.72418,3.72555 -2.30052,5.59531 -4.71725,5.59531 -1.37442,0 -4.63208,-4.18925 -11.46994,-14.75 z m 12.63059,8 c -0.003,-1.31356 -20.32713,-34.71415 -22.62602,-37.18333 -0.2219,-0.23834 -0.92375,0.087 -1.55966,0.72287 -1.59607,1.59607 -0.86297,2.99255 11.5371,21.97708 10.11278,15.48267 12.65721,18.3962 12.64858,14.48338 z M 74.385741,150.20128 c 10.859251,-14.94397 12.412487,-17.55151 11.410586,-19.1558 -1.347562,-2.15779 -1.070434,-2.48279 -17.112219,20.06797 -9.169106,12.88948 -10.602633,15.63469 -9.000775,17.23655 0.909015,0.90902 0.373309,1.57029 14.702408,-18.14872 z m 14.010691,-22.52759 c -0.629401,-1.98307 -0.538612,-2.03705 1.119978,-0.66585 1.691553,1.39845 1.719413,1.35488 0.443621,-0.69391 -1.347611,-2.16413 -1.375224,-2.16617 -2.749846,-0.20362 -1.503655,2.14677 -0.885746,5.42524 0.823429,4.36892 0.578705,-0.35766 0.741125,-1.6136 0.362818,-2.80554 z M 111,129 c 0,-1.1 -0.20917,-2 -0.46482,-2 -0.25565,0 -0.94648,0.9 -1.53518,2 -0.85431,1.5963 -0.76049,2 0.46482,2 0.86851,0 1.53518,-0.86852 1.53518,-2 z m -0.2962,-29 C 138.83313,61.30269 160.69037,29.35704 159.70915,28.375812 159.06874,27.735406 140.84097,51.447803 122.33164,77 c -9.36253,12.925 -20.24227,27.94638 -24.177209,33.38085 -6.948659,9.59665 -7.910645,11.5296 -6.459987,12.98026 1.05924,1.05924 2.922749,-1.23088 19.009356,-23.36111 z m -3.97128,21.91713 c 0.32437,-1.97696 -2.37305,-5.25733 -3.66599,-4.45825 -1.43291,0.88559 -1.35193,3.85572 0.14597,5.35362 1.47296,1.47296 3.20366,1.03273 3.52002,-0.89537 z M 96.782611,107.75 C 97.53474,106.835 93.34234,99.531983 81.139363,80.5 58.027151,44.453774 41.443537,21.096766 43.462567,27.434532 45.163024,32.772291 93.29799,109 94.96813,109 c 0.432839,0 1.249356,-0.5625 1.814481,-1.25 z M 165.09315,23.281825 c 0.45037,-1.219996 0.42493,-2.461632 -0.0565,-2.759191 C 163.876,19.805329 161,22.742241 161,24.644753 c 0,2.250363 3.14598,1.202822 4.09315,-1.362928 z M 42,21.654988 C 42,20.915231 41.1,19.495486 40,18.5 c -1.949089,-1.763901 -2,-1.746633 -2,0.678346 0,1.368576 0.3,2.788321 0.666667,3.154987 C 39.828516,23.495182 42,23.053277 42,21.654988 Z"
         id="path163" />
    </g>
  </g>
</svg>
