<?xml version="1.0" encoding="UTF-8" standalone="no"?>
<svg
   xmlns:dc="http://purl.org/dc/elements/1.1/"
   xmlns:cc="http://creativecommons.org/ns#"
   xmlns:rdf="http://www.w3.org/1999/02/22-rdf-syntax-ns#"
   xmlns:svg="http://www.w3.org/2000/svg"
   xmlns="http://www.w3.org/2000/svg"
   xmlns:sodipodi="http://sodipodi.sourceforge.net/DTD/sodipodi-0.dtd"
   xmlns:inkscape="http://www.inkscape.org/namespaces/inkscape"
   version="1.1"
   id="svg10"
   width="1000"
   height="1000"
   viewBox="0 0 1000 1000"
   sodipodi:docname="baquetas.svg"
   inkscape:version="1.0.2-2 (e86c870879, 2021-01-15)">
  <metadata
     id="metadata16">
    <rdf:RDF>
      <cc:Work
         rdf:about="">
        <dc:format>image/svg+xml</dc:format>
        <dc:type
           rdf:resource="http://purl.org/dc/dcmitype/StillImage" />
        <dc:title></dc:title>
      </cc:Work>
    </rdf:RDF>
  </metadata>
  <defs
     id="defs14" />
  <sodipodi:namedview
     pagecolor="#ffffff"
     bordercolor="#666666"
     borderopacity="1"
     objecttolerance="10"
     gridtolerance="10"
     guidetolerance="10"
     inkscape:pageopacity="0"
     inkscape:pageshadow="2"
     inkscape:window-width="1366"
     inkscape:window-height="705"
     id="namedview12"
     showgrid="false"
     inkscape:zoom="0.38042345"
     inkscape:cx="686.06069"
     inkscape:cy="480.01547"
     inkscape:window-x="-8"
     inkscape:window-y="-8"
     inkscape:window-maximized="1"
     inkscape:current-layer="g22" />
  <g
     inkscape:groupmode="layer"
     inkscape:label="Image"
     id="g18">
    <g
       id="g22"
       transform="matrix(0.87808013,0,0,0.86210993,-26.848999,7.4150613)">
      <path
         style="fill:#6d482c;stroke-width:1.35136"
         d="m 859.93325,1064.1893 c -5.0979,-3.1646 -30.4109,-34.1473 -132.4808,-162.15429 -69.3984,-87.0332 -126.5766,-158.0662 -127.0628,-157.85113 -0.4862,0.21509 -57.7103,71.03043 -127.1647,157.36743 -139.04704,172.84569 -133.37624,166.46939 -146.34574,164.55599 -20.5751,-3.0356 -36.6303,-33.6063 -28.3429,-53.9678 1.1469,-2.818 59.9096,-76.79872 130.58374,-164.40165 L 557.61845,688.45975 448.01585,550.60639 C 337.41981,411.50366 317.57321,386.25407 283.31191,341.06422 244.52031,289.89919 180.66441,202.30198 159.92711,171.80564 c -7.4984,-11.02718 -9.8495,-13.44803 -16.4583,-16.94698 -9.4625,-5.00982 -16.2312,-13.70984 -21.5151,-27.65408 -3.1772,-8.38475 -3.8199,-11.90351 -3.8315,-20.97688 -0.013,-10.313923 0.1998,-11.168353 3.9475,-15.836943 3.7477,-4.66859 4.4336,-4.9339 12.7131,-4.91751 17.2738,0.034 32.6131,13.30538 39.0681,33.800943 3.9089,12.41136 -0.368,7.11913 50.1999,62.11645 87.8886,95.58701 135.0644,151.4104 296.63914,351.01505 l 80.5163,99.46751 116.234,-144.27867 c 137.4696,-170.63774 177.9963,-218.67977 282.56125,-334.96002 20.4419,-22.7321 22.5291,-25.52546 25.745,-34.45435 1.9249,-5.34416 5.135,-12.28881 7.1338,-15.43254 8.0017,-12.585593 26.3767,-22.886506 36.5562,-20.493213 9.8366,2.31272 15.2575,13.55385 13.8251,28.668673 -1.7241,18.19317 -14.1116,38.62214 -27.0861,44.66932 -3.6823,1.71624 -7.6075,3.94517 -8.7228,4.95317 -1.1152,1.008 -10.6885,14.38916 -21.2737,29.73593 -80.09105,116.11785 -130.77875,183.1346 -273.31575,361.36498 -58.4392,73.07318 -106.2531,133.53132 -106.2531,134.3514 0,0.82009 57.298,72.36655 127.3289,158.99213 92.9518,114.97785 127.9146,159.14729 129.4981,163.59829 7.5883,21.3297 0.1482,43.2632 -18.6435,54.9609 -9.3655,5.8299 -16.2159,6.0063 -24.8604,0.6401 z m -528.99294,-23.7651 c 2.338,-1.2219 39.9699,-47.09793 94.09864,-114.71281 49.6114,-61.97209 90.3734,-113.27786 90.5824,-114.01286 0.209,-0.73502 -1.1532,-2.32931 -3.0269,-3.54288 -4.3493,-2.81691 -12.2074,-12.5806 -14.4508,-17.95518 -0.9523,-2.28129 -2.4498,-4.14778 -3.3279,-4.14778 -0.878,0 -42.5034,51.16247 -92.5008,113.69436 -98.92624,123.72745 -95.82744,119.31045 -91.90634,131.00075 1.2101,3.6078 3.4279,6.5308 6.4749,8.5335 5.5071,3.6196 8.8053,3.8877 14.0568,1.1429 z m 550.65264,-5.389 c 3.8052,-4.7402 4.5192,-10.2832 2.2727,-17.6438 -1.1278,-3.6954 -181.0672,-229.95626 -182.7098,-229.74453 -0.3665,0.0471 -2.7185,3.44194 -5.2267,7.54382 -2.5082,4.10186 -6.4515,8.98395 -8.7631,10.84913 -2.3115,1.86518 -4.2095,4.13806 -4.2178,5.05085 -0.023,2.49761 180.0446,224.30053 183.7992,226.40003 5.7941,3.2399 10.9594,2.3855 14.8455,-2.4555 z M 528.00645,797.15842 c 3.3011,-3.84652 6.0019,-7.49719 6.0019,-8.11257 0,-0.6154 -1.6208,-1.95525 -3.6019,-2.97745 -4.0361,-2.0826 -12.6739,-13.11114 -14.7809,-18.87197 -1.9314,-5.28051 -3.5871,-4.74961 -9.3107,2.9856 -6.1081,8.2548 -6.4114,12.98628 -1.3862,21.62785 3.6132,6.21349 10.8215,12.15012 14.905,12.27551 1.1939,0.0368 4.8717,-3.08047 8.1728,-6.92697 z m 155.8951,3.35762 c 3.7496,-2.44027 8.985,-9.12382 11.0341,-14.08629 1.7464,-4.22923 0.7529,-6.64452 -6.2041,-15.08312 l -5.285,-6.41052 -4.7715,7.16465 c -4.3202,6.48703 -6.9841,9.65041 -12.6198,14.98618 -1.6408,1.55349 -1.1799,2.69272 3.509,8.67261 5.7822,7.37438 8.7843,8.37032 14.3373,4.75649 z m -142.1021,-20.38775 c 2.0299,-2.79421 1.9766,-2.9953 -1.3639,-5.14727 -3.6018,-2.32017 -12.8462,-14.02618 -16.2536,-20.58154 -1.6905,-3.2523 -2.2122,-3.47801 -3.9314,-1.70066 -3.7881,3.91637 -2.1953,10.19033 5.1654,20.3466 2.6447,3.64911 11.0745,9.84373 13.5506,9.95758 0.3962,0.0182 1.671,-1.2754 2.8329,-2.87471 z m 125.7558,-2.74821 c 8.6904,-8.14481 13.3665,-20.23416 8.6908,-22.46924 -1.2115,-0.57914 -4.4305,2.4138 -9.3835,8.72454 -4.1466,5.28336 -8.6252,10.35379 -9.9525,11.26761 -2.0827,1.43394 -2.1867,2.00137 -0.7598,4.14316 2.4142,3.62369 6.3788,3.04452 11.405,-1.66607 z m -117.1325,-8.05753 c 0.4517,-0.91036 -1.2768,-3.7781 -3.8635,-6.41007 -6.3711,-6.48262 -11.1567,-12.97294 -13.3137,-18.05667 -2.0422,-4.81303 -4.4943,-4.68367 -5.0782,0.26793 -1.2426,10.53856 18.4237,31.92215 22.2554,24.19881 z m 112.2301,-8.94662 c 5.8304,-7.82208 7.1996,-13.18001 4.169,-16.31327 -1.205,-1.24579 -2.0592,-0.63001 -3.5826,2.58272 -2.1238,4.47868 -11.0328,15.26402 -14.7479,17.854 -3.6341,2.53342 -1.0184,5.42191 4.0239,4.44353 3.2564,-0.63185 5.8682,-2.83901 10.1376,-8.56698 z m -25.1711,-99.09309 c 253.5137,-314.29511 277.5429,-344.98585 352.8577,-450.67966 13.57995,-19.05771 27.20115,-37.97836 30.26925,-42.0459 8.3336,-11.04844 11.0268,-16.11576 11.0268,-20.74763 0,-5.62396 -3.9415,-8.38475 -7.6486,-5.35748 -11.2912,9.22061 -121.27115,136.6256 -179.29935,207.70717 -93.4104,114.42315 -307.195,381.05127 -307.7538,383.82488 -1.8103,8.98488 10.3969,26.08742 18.8209,26.36865 0.9727,0.0324 37.7498,-44.54906 81.7271,-99.07003 z m 15.9719,89.55475 c 9.5075,-11.84372 9.2709,-13.03542 -6.5408,-32.94297 l -13.0158,-16.38737 -9.9395,12.48414 -9.9396,12.48418 12.7127,16.21403 c 15.6358,19.94218 16.9368,20.33885 26.723,8.14799 z m -73.5874,-92.04503 10.0866,-12.63072 -66.966,-84.27637 C 390.21365,394.79142 368.21011,367.39865 334.23101,326.89883 c -38.3264,-45.6815 -72.7964,-85.51758 -106.5479,-123.13474 -44.2212,-49.28608 -53.2506,-58.73105 -56.1468,-58.73105 -3.288,0 -7.2042,4.80165 -6.6167,8.11271 0.6342,3.57413 49.2722,70.48258 109.7751,151.01099 26.0136,34.62377 292.59364,367.26655 294.32744,367.26655 0.4166,0 5.2964,-5.68383 10.8441,-12.63073 z M 157.04761,136.0818 c 7.8748,-5.98161 6.89,-16.50496 -2.6279,-28.0807 -10.6017,-12.893943 -23.5822,-16.729773 -26.9389,-7.96066 -3.2112,8.38892 6.1966,29.89278 15.62,35.70336 6.4918,4.00294 9.0405,4.06471 13.9468,0.338 z M 1060.07,130.82426 c 10.6287,-10.09879 14.9011,-27.50861 8.3308,-33.946743 -7.4886,-7.33782 -23.2383,-0.86138 -30.4087,12.504293 -5.8147,10.8383 -4.873,19.45867 2.7242,24.93875 4.21,3.03681 14.4189,1.19255 19.3537,-3.4963 z"
         id="path32" />
    </g>
  </g>
</svg>
